<svg width="128" height="128" xmlns="http://www.w3.org/2000/svg">
 <defs>
  <linearGradient id="svg_50" x1="0" y1="0" x2="1" y2="1">
   <stop offset="0" stop-color="#3F47AA"/>
   <stop offset="0" stop-color="#2CACBC"/>
  </linearGradient>
 </defs>
 <g>
  <title>background</title>
  <rect x="-1" y="-1" width="130" height="130" id="canvas_background" fill="none"/>
 </g>
 <g>
  <title>Layer 1</title>
  <g stroke="null" id="svg_52">
   <g stroke="null" id="svg_2">
    <rect stroke="null" y="35.201225" width="109.926577" height="76.948604" fill="#ECF0F1" id="svg_3" x="0.242584"/>
    <rect stroke="null" y="4.421784" width="109.926577" height="30.779442" fill="#546A79" id="svg_4" x="0.242584"/>
    <circle stroke="null" cx="15.632305" cy="19.811504" r="6.595591" fill="#ED7161" id="svg_5"/>
    <circle stroke="null" cx="35.419089" cy="19.811504" r="6.595592" fill="#EFC41A" id="svg_6"/>
    <circle stroke="null" cx="55.205873" cy="19.811504" r="6.595592" fill="#4FBA6E" id="svg_7"/>
   </g>
   <g stroke="null" id="svg_12"/>
   <g stroke="null" id="svg_13"/>
   <g stroke="null" id="svg_14"/>
   <g stroke="null" id="svg_15"/>
   <g stroke="null" id="svg_16"/>
   <g stroke="null" id="svg_17"/>
   <g stroke="null" id="svg_18"/>
   <g stroke="null" id="svg_19"/>
   <g stroke="null" id="svg_20"/>
   <g stroke="null" id="svg_21"/>
   <g stroke="null" id="svg_22"/>
   <g stroke="null" id="svg_23"/>
   <g stroke="null" id="svg_24"/>
   <g stroke="null" id="svg_25"/>
   <g stroke="null" id="svg_26"/>
   <g stroke="null" id="svg_43">
    <g stroke="null" id="svg_33" transform="matrix(0.12441189454600962,0,0,0.12441189454600962,109.03822518846022,106.0109964227733) ">
     <path stroke="null" d="m116.32837,141.202086l-443.734,0c-18.852,0 -34.133,-15.282 -34.133,-34.133l0,-443.734c0,-18.852 15.281,-34.133 34.133,-34.133l443.733,0c18.852,0 34.134,15.281 34.134,34.133l0,443.733c0,18.852 -15.282,34.134 -34.133,34.134z" fill="url(#svg_50)" id="svg_34"/>
     <g stroke="null" id="svg_35">
      <path stroke="null" d="m-189.99163,-239.851914c-8.97,0 -16.241,7.272 -16.241,16.241c0,8.969 7.272,16.241 16.241,16.241c8.969,0 16.241,-7.272 16.241,-16.241c0,-8.969 -7.27,-16.241 -16.241,-16.241l0,0z" fill="#FFFFFF" id="svg_36"/>
      <path stroke="null" d="m-178.62363,-61.203914l-22.736,0c-2.691,0 -4.873,-2.181 -4.873,-4.873l0,-128.301c0,-2.691 2.181,-4.873 4.873,-4.873l22.738,0c2.691,0 4.873,2.181 4.873,4.873l0,128.302c-0.002,2.691 -2.183,4.872 -4.875,4.872z" fill="#FFFFFF" id="svg_37"/>
      <path stroke="null" d="m-86.05063,-173.346914l0,-22.738c0,-2.691 2.181,-4.873 4.873,-4.873l71.46,0c2.691,0 4.873,2.181 4.873,4.873l0,22.738c0,2.691 -2.181,4.873 -4.873,4.873l-71.46,0c-2.69,-0.002 -4.873,-2.183 -4.873,-4.873z" fill="#FFFFFF" id="svg_38"/>
      <path stroke="null" d="m-86.45663,-168.475914c20.149,0 36.541,16.393 36.541,36.541s-16.393,36.541 -36.541,36.541s-36.541,-16.393 -36.541,-36.541s16.392,-36.541 36.541,-36.541m0,-32.481c-38.12,0 -69.024,30.903 -69.024,69.024s30.903,69.024 69.024,69.024s69.024,-30.903 69.024,-69.024s-30.902,-69.024 -69.024,-69.024l0,0z" fill="#FFFFFF" id="svg_39"/>
      <path stroke="null" d="m-86.45663,-23.931914c16.497,0 30.162,12.363 32.215,28.31c0.309,2.4 2.393,4.173 4.813,4.173l22.868,0c2.807,0 5.086,-2.371 4.866,-5.169c-2.633,-33.463 -30.623,-59.795 -64.761,-59.795s-62.126,26.332 -64.761,59.795c-0.22,2.799 2.058,5.169 4.866,5.169l22.868,0c2.42,0 4.504,-1.773 4.813,-4.173c2.053,-15.948 15.717,-28.31 32.213,-28.31z" fill="#FFFFFF" id="svg_40"/>
     </g>
    </g>
   </g>
  </g>
 </g>
</svg>