<svg width="96" height="96" xmlns="http://www.w3.org/2000/svg">
 <defs>
  <linearGradient id="svg_50" x1="0" y1="0" x2="1" y2="1">
   <stop offset="0" stop-color="#3F47AA"/>
   <stop offset="0" stop-color="#2CACBC"/>
  </linearGradient>
 </defs>
 <g>
  <title>background</title>
  <rect x="-1" y="-1" width="98" height="98" id="canvas_background" fill="none"/>
 </g>
 <g>
  <title>Layer 1</title>
  <g stroke="null" id="svg_52">
   <g stroke="null" id="svg_2">
    <rect stroke="null" y="26.345549" width="82.656295" height="57.859407" fill="#ECF0F1" id="svg_3" x="0.059357"/>
    <rect stroke="null" y="3.201786" width="82.656295" height="23.143763" fill="#546A79" id="svg_4" x="0.059357"/>
    <circle stroke="null" cx="11.631238" cy="14.773668" r="4.959376" fill="#ED7161" id="svg_5"/>
    <circle stroke="null" cx="26.509371" cy="14.773668" r="4.959374" fill="#EFC41A" id="svg_6"/>
    <circle stroke="null" cx="41.387504" cy="14.773668" r="4.959374" fill="#4FBA6E" id="svg_7"/>
   </g>
   <g stroke="null" id="svg_12"/>
   <g stroke="null" id="svg_13"/>
   <g stroke="null" id="svg_14"/>
   <g stroke="null" id="svg_15"/>
   <g stroke="null" id="svg_16"/>
   <g stroke="null" id="svg_17"/>
   <g stroke="null" id="svg_18"/>
   <g stroke="null" id="svg_19"/>
   <g stroke="null" id="svg_20"/>
   <g stroke="null" id="svg_21"/>
   <g stroke="null" id="svg_22"/>
   <g stroke="null" id="svg_23"/>
   <g stroke="null" id="svg_24"/>
   <g stroke="null" id="svg_25"/>
   <g stroke="null" id="svg_26"/>
   <g stroke="null" id="svg_43">
    <g stroke="null" id="svg_33" transform="matrix(0.09354813504939144,0,0,0.09354813504939144,198.2442038599502,188.65432976792525) ">
     <path stroke="null" d="m-1127.725633,-1024.67151l-443.734,0c-18.852,0 -34.133,-15.282 -34.133,-34.133l0,-443.734c0,-18.852 15.281,-34.133 34.133,-34.133l443.733,0c18.852,0 34.134,15.281 34.134,34.133l0,443.733c0,18.852 -15.282,34.134 -34.133,34.134z" fill="url(#svg_50)" id="svg_34"/>
     <g stroke="null" id="svg_35">
      <path stroke="null" d="m-1434.045633,-1405.72551c-8.97,0 -16.241,7.272 -16.241,16.241c0,8.969 7.272,16.241 16.241,16.241c8.969,0 16.241,-7.272 16.241,-16.241c0,-8.969 -7.27,-16.241 -16.241,-16.241l0,0z" fill="#FFFFFF" id="svg_36"/>
      <path stroke="null" d="m-1422.677633,-1227.07751l-22.736,0c-2.691,0 -4.873,-2.181 -4.873,-4.873l0,-128.301c0,-2.691 2.181,-4.873 4.873,-4.873l22.738,0c2.691,0 4.873,2.181 4.873,4.873l0,128.302c-0.002,2.691 -2.183,4.872 -4.875,4.872z" fill="#FFFFFF" id="svg_37"/>
      <path stroke="null" d="m-1330.104633,-1339.22051l0,-22.738c0,-2.691 2.181,-4.873 4.873,-4.873l71.46,0c2.691,0 4.873,2.181 4.873,4.873l0,22.738c0,2.691 -2.181,4.873 -4.873,4.873l-71.46,0c-2.69,-0.002 -4.873,-2.183 -4.873,-4.873z" fill="#FFFFFF" id="svg_38"/>
      <path stroke="null" d="m-1330.510633,-1334.34951c20.149,0 36.541,16.393 36.541,36.541s-16.393,36.541 -36.541,36.541s-36.541,-16.393 -36.541,-36.541s16.392,-36.541 36.541,-36.541m0,-32.481c-38.12,0 -69.024,30.903 -69.024,69.024s30.903,69.024 69.024,69.024s69.024,-30.903 69.024,-69.024s-30.902,-69.024 -69.024,-69.024l0,0z" fill="#FFFFFF" id="svg_39"/>
      <path stroke="null" d="m-1330.510633,-1189.80551c16.497,0 30.162,12.363 32.215,28.31c0.309,2.4 2.393,4.173 4.813,4.173l22.868,0c2.807,0 5.086,-2.371 4.866,-5.169c-2.633,-33.463 -30.623,-59.795 -64.761,-59.795s-62.126,26.332 -64.761,59.795c-0.22,2.799 2.058,5.169 4.866,5.169l22.868,0c2.42,0 4.504,-1.773 4.813,-4.173c2.053,-15.948 15.717,-28.31 32.213,-28.31z" fill="#FFFFFF" id="svg_40"/>
     </g>
    </g>
   </g>
  </g>
 </g>
</svg>