<svg width="512" height="512" xmlns="http://www.w3.org/2000/svg">
 <defs>
  <linearGradient stroke="null" transform="translate(562.8818969726562,0) translate(53.97498321533203,-38.553558349609375) translate(-616.85693359375,0) translate(5.684341886080802e-14,22.702037811279297) translate(6.7687506675720215,5.684341886080802e-14) translate(355.8464050292969,-260.2458801269531) translate(-414.26898193359375,382.4021301269531) translate(5.684341886080802e-14,-5.311140537261963) translate(281.4904479980469,-122.15624237060547) translate(-5.311140537261963,5.684341886080802e-14) translate(37.17798614501953,244.31248474121094) translate(404.295654296875,0) translate(0,404.295654296875) " y2="1" x2="1" y1="0" x1="0" id="svg_50">
   <stop stroke="null" stop-color="#3F47AA" offset="0"/>
   <stop stroke="null" stop-color="#2CACBC" offset="0"/>
  </linearGradient>
 </defs>
 <g>
  <title>background</title>
  <rect fill="none" id="canvas_background" height="514" width="514" y="-1" x="-1"/>
 </g>
 <g>
  <title>Layer 1</title>
  <g stroke="null" id="svg_52">
   <g stroke="null" id="svg_2">
    <rect stroke="null" x="0.981827" id="svg_3" fill="#ECF0F1" height="307.780553" width="439.686505" y="140.810052"/>
    <rect stroke="null" x="0.981827" id="svg_4" fill="#546A79" height="123.112221" width="439.686505" y="17.69783"/>
    <circle stroke="null" id="svg_5" fill="#ED7161" r="26.381189" cy="79.253941" cx="62.537937"/>
    <circle stroke="null" id="svg_6" fill="#EFC41A" r="26.381189" cy="79.253941" cx="141.681508"/>
    <circle stroke="null" id="svg_7" fill="#4FBA6E" r="26.381189" cy="79.253941" cx="220.825079"/>
   </g>
   <g stroke="null" id="svg_12"/>
   <g stroke="null" id="svg_13"/>
   <g stroke="null" id="svg_14"/>
   <g stroke="null" id="svg_15"/>
   <g stroke="null" id="svg_16"/>
   <g stroke="null" id="svg_17"/>
   <g stroke="null" id="svg_18"/>
   <g stroke="null" id="svg_19"/>
   <g stroke="null" id="svg_20"/>
   <g stroke="null" id="svg_21"/>
   <g stroke="null" id="svg_22"/>
   <g stroke="null" id="svg_23"/>
   <g stroke="null" id="svg_24"/>
   <g stroke="null" id="svg_25"/>
   <g stroke="null" id="svg_26"/>
   <g stroke="null" id="svg_43">
    <g stroke="null" transform="matrix(0.4976251641358432,0,0,0.4976251641358432,-76.34587810753419,-88.58608523113253) " id="svg_33">
     <linearGradient stroke="null" transform="translate(-2.842170943040401e-14,0.1687856912612915) translate(0.18066875636577606,-2.842170943040401e-14) translate(0,31.725601196289062) translate(2.1545135974884033,0) translate(562.8818969726562,0) translate(53.97498321533203,-38.553558349609375) translate(-616.85693359375,0) translate(5.684341886080802e-14,22.702037811279297) translate(6.7687506675720215,5.684341886080802e-14) translate(355.8464050292969,-260.2458801269531) translate(-414.26898193359375,382.4021301269531) translate(5.684341886080802e-14,-5.311140537261963) translate(281.4904479980469,-122.15624237060547) translate(-5.311140537261963,5.684341886080802e-14) translate(37.17798614501953,244.31248474121094) translate(404.295654296875,0) translate(0,404.295654296875) " y2="0.890789" x2="0.890789" y1="0.211297" x1="0.211297" id="svg_31">
      <stop stroke="null" stop-color="#3F47AA" offset="0"/>
      <stop stroke="null" stop-color="#2CACBC" offset="1"/>
     </linearGradient>
     <path stroke="null" id="svg_34" fill="url(#svg_50)" d="m1146.201251,1171.339872l-443.734,0c-18.852,0 -34.133,-15.282 -34.133,-34.133l0,-443.734c0,-18.852 15.281,-34.133 34.133,-34.133l443.733,0c18.852,0 34.134,15.281 34.134,34.133l0,443.733c0,18.852 -15.282,34.134 -34.133,34.134z"/>
     <g stroke="null" id="svg_35">
      <path stroke="null" id="svg_36" fill="#FFFFFF" d="m839.881251,790.285872c-8.97,0 -16.241,7.272 -16.241,16.241c0,8.969 7.272,16.241 16.241,16.241c8.969,0 16.241,-7.272 16.241,-16.241c0,-8.969 -7.27,-16.241 -16.241,-16.241l0,0z"/>
      <path stroke="null" id="svg_37" fill="#FFFFFF" d="m851.249251,968.933872l-22.736,0c-2.691,0 -4.873,-2.181 -4.873,-4.873l0,-128.301c0,-2.691 2.181,-4.873 4.873,-4.873l22.738,0c2.691,0 4.873,2.181 4.873,4.873l0,128.302c-0.002,2.691 -2.183,4.872 -4.875,4.872z"/>
      <path stroke="null" id="svg_38" fill="#FFFFFF" d="m943.822251,856.790872l0,-22.738c0,-2.691 2.181,-4.873 4.873,-4.873l71.46,0c2.691,0 4.873,2.181 4.873,4.873l0,22.738c0,2.691 -2.181,4.873 -4.873,4.873l-71.46,0c-2.69,-0.002 -4.873,-2.183 -4.873,-4.873z"/>
      <path stroke="null" id="svg_39" fill="#FFFFFF" d="m943.416251,861.661872c20.149,0 36.541,16.393 36.541,36.541s-16.393,36.541 -36.541,36.541s-36.541,-16.393 -36.541,-36.541s16.392,-36.541 36.541,-36.541m0,-32.481c-38.12,0 -69.024,30.903 -69.024,69.024s30.903,69.024 69.024,69.024s69.024,-30.903 69.024,-69.024s-30.902,-69.024 -69.024,-69.024l0,0z"/>
      <path stroke="null" id="svg_40" fill="#FFFFFF" d="m943.416251,1006.205872c16.497,0 30.162,12.363 32.215,28.31c0.309,2.4 2.393,4.173 4.813,4.173l22.868,0c2.807,0 5.086,-2.371 4.866,-5.169c-2.633,-33.463 -30.623,-59.795 -64.761,-59.795s-62.126,26.332 -64.761,59.795c-0.22,2.799 2.058,5.169 4.866,5.169l22.868,0c2.42,0 4.504,-1.773 4.813,-4.173c2.053,-15.948 15.717,-28.31 32.213,-28.31z"/>
     </g>
    </g>
   </g>
  </g>
 </g>
</svg>