<?xml version="1.0" encoding="utf-8"?>
<!-- Generator: Adobe Illustrator 21.0.0, SVG Export Plug-In . SVG Version: 6.00 Build 0)  -->
<svg version="1.1" id="Layer_1" xmlns="http://www.w3.org/2000/svg" xmlns:xlink="http://www.w3.org/1999/xlink" x="0px" y="0px"
	 viewBox="0 0 512 512" style="enable-background:new 0 0 512 512;" xml:space="preserve">
<g>
	
		<linearGradient id="SVGID_1_" gradientUnits="userSpaceOnUse" x1="108.1839" y1="193.8161" x2="456.0841" y2="-154.0841" gradientTransform="matrix(1 0 0 -1 0 302)">
		<stop  offset="0" style="stop-color:#3F47AA"/>
		<stop  offset="1" style="stop-color:#2CACBC"/>
	</linearGradient>
	<path style="fill:url(#SVGID_1_);" d="M477.867,512H34.133C15.281,512,0,496.718,0,477.867V34.133C0,15.281,15.281,0,34.133,0
		h443.733C496.718,0,512,15.281,512,34.133v443.733C512,496.718,496.718,512,477.867,512z"/>
	<g>
		<path style="fill:#FFFFFF;" d="M171.547,130.946c-8.97,0-16.241,7.272-16.241,16.241c0,8.969,7.272,16.241,16.241,16.241
			c8.969,0,16.241-7.272,16.241-16.241C187.788,138.218,180.518,130.946,171.547,130.946L171.547,130.946z"/>
		<path style="fill:#FFFFFF;" d="M182.915,309.594h-22.736c-2.691,0-4.873-2.181-4.873-4.873V176.42
			c0-2.691,2.181-4.873,4.873-4.873h22.738c2.691,0,4.873,2.181,4.873,4.873v128.302
			C187.788,307.413,185.607,309.594,182.915,309.594z"/>
		<path style="fill:#FFFFFF;" d="M275.488,197.451v-22.738c0-2.691,2.181-4.873,4.873-4.873h71.46c2.691,0,4.873,2.181,4.873,4.873
			v22.738c0,2.691-2.181,4.873-4.873,4.873h-71.46C277.671,202.322,275.488,200.141,275.488,197.451z"/>
		<path style="fill:#FFFFFF;" d="M275.082,202.322c20.149,0,36.541,16.393,36.541,36.541s-16.393,36.541-36.541,36.541
			s-36.541-16.393-36.541-36.541S254.933,202.322,275.082,202.322 M275.082,169.841c-38.12,0-69.024,30.903-69.024,69.024
			s30.903,69.024,69.024,69.024s69.024-30.903,69.024-69.024S313.204,169.841,275.082,169.841L275.082,169.841z"/>
		<path style="fill:#FFFFFF;" d="M275.082,346.866c16.497,0,30.162,12.363,32.215,28.31c0.309,2.4,2.393,4.173,4.813,4.173h22.868
			c2.807,0,5.086-2.371,4.866-5.169c-2.633-33.463-30.623-59.795-64.761-59.795s-62.126,26.332-64.761,59.795
			c-0.22,2.799,2.058,5.169,4.866,5.169h22.868c2.42,0,4.504-1.773,4.813-4.173C244.922,359.228,258.586,346.866,275.082,346.866z"
			/>
	</g>
</g>
<rect x="21" y="40" style="display:none;fill:#3F47AA;" width="33" height="33"/>
<rect x="21" y="86" style="display:none;fill:#2CACBC;" width="33" height="33"/>
</svg>
