<svg width="20" height="20" xmlns="http://www.w3.org/2000/svg">
 <!-- ImageGlass icons http://www.imageglass.org -->

 <g>
  <title>background</title>
  <rect x="-1" y="-1" width="2.873362" height="2.873362" id="canvas_background" fill="none"/>
  <g id="canvasGrid" display="none">
   <rect id="svg_2" width="100%" height="100%" x="0" y="0" stroke-width="0" fill="url(#gridpattern)"/>
  </g>
 </g>
 <g>
  <title>Layer 1</title>
  <rect x="0.35" y="11.670109" stroke="#fff" fill="none" width="7.979891" height="7.979891" id="svg_1" stroke-width="0.7"/>
  <g id="svg_5"/>
  <g transform="rotate(-180 5.531461715698242,5.891925811767578) " id="svg_48">
   <line fill="none" stroke-opacity="null" x1="2.595958" y1="5.957504" x2="8.470612" y2="5.957504" id="svg_21" stroke-linejoin="null" stroke-linecap="null" stroke-width="0.7" transform="rotate(-270 5.5332860946655265,5.957503795623779) " stroke="#fff"/>
   <line fill="none" stroke-opacity="null" x1="4.787527" y1="4.154769" x2="8.244112" y2="4.154769" id="svg_22" stroke-linejoin="null" stroke-linecap="null" stroke-width="0.7" transform="rotate(-315 6.515819549560549,4.154768943786619) " stroke="#fff"/>
   <line fill="none" stroke-opacity="null" x1="2.817297" y1="4.114758" x2="6.284208" y2="4.114758" id="svg_23" stroke-linejoin="null" stroke-linecap="null" stroke-width="0.7" transform="rotate(-225 4.550753593444824,4.114758014678955) " stroke="#fff"/>
  </g>
  <g id="svg_52" transform="rotate(-90 14.032793045043947,14.526744842529297) ">
   <line fill="none" stroke-opacity="null" x1="11.097291" y1="14.592323" x2="16.971945" y2="14.592323" id="svg_49" stroke-linejoin="null" stroke-linecap="null" stroke-width="0.7" transform="rotate(-270 14.034617424011229,14.592322349548338) " stroke="#fff"/>
   <line fill="none" stroke-opacity="null" x1="13.28886" y1="12.789588" x2="16.745445" y2="12.789588" id="svg_50" stroke-linejoin="null" stroke-linecap="null" stroke-width="0.7" transform="rotate(-315 15.017150878906254,12.78958797454834) " stroke="#fff"/>
   <line fill="none" stroke-opacity="null" x1="11.31863" y1="12.749577" x2="14.785541" y2="12.749577" id="svg_51" stroke-linejoin="null" stroke-linecap="null" stroke-width="0.7" transform="rotate(-225 13.052084922790526,12.749577522277828) " stroke="#fff"/>
  </g>
  <line stroke="#fff" stroke-linecap="null" stroke-linejoin="null" id="svg_9" y2="0.35" x2="19.991546" y1="0.35" x1="0.030072" fill-opacity="null" stroke-opacity="null" stroke-width="0.7" fill="none"/>
  <line transform="rotate(-90 19.67840385437012,10.290233612060549) " stroke="#fff" stroke-linecap="null" stroke-linejoin="null" id="svg_10" y2="10.290234" x2="29.659141" y1="10.290234" x1="9.697667" fill-opacity="null" stroke-opacity="null" stroke-width="0.7" fill="none"/>
  <line stroke="#fff" stroke-linecap="null" stroke-linejoin="null" id="svg_11" y2="19.711281" x2="19.991545" y1="19.711281" x1="11.364624" fill-opacity="null" stroke-opacity="null" stroke-width="0.7" fill="none"/>
  <line stroke="#fff" transform="rotate(-90 0.32159519195556735,4.446199417114259) " stroke-linecap="null" stroke-linejoin="null" id="svg_12" y2="4.446199" x2="4.635056" y1="4.446199" x1="-3.991865" fill-opacity="null" stroke-opacity="null" stroke-width="0.7" fill="none"/>
 </g>
</svg>







