<svg width="284.929" height="284.929" xmlns="http://www.w3.org/2000/svg">
 <g>
  <title>background</title>
  <rect fill="none" id="canvas_background" height="402" width="582" y="-1" x="-1"/>
 </g>
 <g>
  <title>Layer 1</title>
  <g transform="rotate(-180 142.46400451660156,142.46400451660156) " id="svg_1">
   <g id="svg_2">
    <path id="svg_3" d="m165.304,142.468l112.213,-112.201c1.902,-1.903 2.847,-4.093 2.847,-6.567c0,-2.475 -0.951,-4.665 -2.847,-6.567l-14.278,-14.276c-1.902,-1.902 -4.093,-2.857 -6.563,-2.857c-2.478,0 -4.665,0.955 -6.571,2.857l-133.048,133.043c-1.903,1.903 -2.853,4.093 -2.853,6.567c0,2.475 0.95,4.664 2.853,6.567l133.048,133.043c1.903,1.906 4.086,2.851 6.564,2.851c2.478,0 4.66,-0.947 6.563,-2.851l14.277,-14.267c1.902,-1.903 2.851,-4.094 2.851,-6.57c0,-2.472 -0.948,-4.661 -2.851,-6.564l-112.205,-112.208z"/>
    <path id="svg_4" d="m55.668,142.468l112.202,-112.201c1.903,-1.903 2.851,-4.093 2.851,-6.567c0,-2.475 -0.947,-4.665 -2.851,-6.567l-14.27,-14.276c-1.903,-1.902 -4.093,-2.857 -6.564,-2.857c-2.478,0 -4.668,0.955 -6.57,2.857l-133.049,133.043c-1.903,1.903 -2.853,4.093 -2.853,6.567c0,2.475 0.95,4.664 2.853,6.567l133.048,133.043c1.902,1.906 4.09,2.851 6.57,2.851c2.471,0 4.661,-0.947 6.563,-2.851l14.271,-14.267c1.903,-1.903 2.851,-4.094 2.851,-6.57c0,-2.472 -0.947,-4.661 -2.851,-6.564l-112.201,-112.208z"/>
   </g>
  </g>
 </g>
</svg>