<?xml version="1.0" encoding="utf-8"?>
<svg xmlns="http://www.w3.org/2000/svg" 
	 xmlns:xlink="http://www.w3.org/1999/xlink" 
	 version="1.1" 
	 style="width:0;height:0;position:absolute;overflow:hidden;">
<path d="M22 0l20 39H22V0zm3 12.5V36h11.5L25 12.5zM20 0v7.08l-1.799 3.53-2.6-2.031L20 0zm0 30h-3v-4h3v4zm-3-8.734l3-5.785V23h-3v-1.734zm-3.676-1.253l-2.561-2.001 3.066-5.978 2.459 1.922-2.964 6.057zm-4.53 9.258l-2.716-2.122 2.913-5.682 2.62 2.047-2.818 5.756zM20 39h-3v-6h3v6zM0 39l4.305-8.396 2.775 2.168L5.5 36H7v3H0zm14-3v3h-4v-3h4z"/>
</svg>
