<svg width="20" height="20" xmlns="http://www.w3.org/2000/svg">
 <!-- ImageGlass icons http://www.imageglass.org -->
 
 <g>
  <title>background</title>
  <rect fill="none" id="canvas_background" height="22" width="22" y="-1" x="-1"/>
 </g>
 <g>
  <title>Layer 1</title>
  <g stroke="null" id="Box_open">
   <path stroke="null" id="svg_267" fill="#000000" d="m17.298089,7.481309l2.519328,-2.518054c0.080899,-0.078351 0.118482,-0.190462 0.104468,-0.298752c-0.015925,-0.113386 -0.080899,-0.210209 -0.176449,-0.266265l-6.794224,-3.923909c-0.140777,-0.080899 -0.317225,-0.056056 -0.431885,0.059878l-2.519328,2.51678l-2.519328,-2.51678c-0.115934,-0.115934 -0.292382,-0.140777 -0.433159,-0.059878l-6.79295,3.923909c-0.098098,0.056056 -0.163072,0.15288 -0.175175,0.266265c-0.014651,0.10829 0.021021,0.220401 0.099372,0.298752l2.520602,2.518054l-2.520602,2.520602c-0.078351,0.078351 -0.11466,0.190462 -0.099372,0.298752c0.01274,0.109564 0.077077,0.207661 0.175175,0.263717l2.591309,1.49822l0,3.262068c0,0.129311 0.069433,0.246518 0.178997,0.310855l6.795498,3.923909c0.054782,0.033761 0.117208,0.047138 0.178997,0.047138c0.061152,0 0.122941,-0.013377 0.178997,-0.047138l6.79295,-3.923909c0.109564,-0.064974 0.178997,-0.181545 0.178997,-0.310855l0,-3.262068l2.593857,-1.49822c0.09555,-0.056056 0.160524,-0.154154 0.176449,-0.263717c0.013377,-0.112112 -0.023569,-0.220401 -0.104468,-0.298752l-2.518054,-2.520602zm-1.224311,0l-6.073779,3.508587l-6.076327,-3.508587l4.555812,-2.630166l1.520515,-0.875873l5.49411,3.17034l0.579668,0.335698zm-3.242321,-6.248316l6.149582,3.55445l-2.247967,2.245419l-0.368185,-0.212757l-5.78267,-3.337871l2.249241,-2.249241zm-5.662915,0l2.249241,2.249241l-6.15213,3.550628l-2.249241,-2.245419l6.15213,-3.55445zm-3.902889,6.696126l6.149582,3.553176l-2.247967,2.245419l-3.783133,-2.18363c-0.001274,0 -0.001274,0 -0.001274,0l-2.366449,-1.366998l2.249241,-2.247967zm0.297478,4.546894l3.483744,2.010367c0.056056,0.033761 0.118482,0.048412 0.178997,0.048412c0.007644,0 0.01274,-0.008918 0.021021,-0.008918c0.083447,-0.002548 0.168168,-0.031213 0.232504,-0.094276l2.162609,-2.162609l0,6.359791l-6.078875,-3.512409l0,-2.640358zm12.87055,2.641632l-6.075053,3.508587l0,-6.356606l2.160061,2.162609c0.0637,0.0637 0.145873,0.088543 0.23123,0.094276c0.007644,0 0.014651,0.008918 0.021021,0.008918c0.062426,0 0.122941,-0.014651 0.178997,-0.048412l3.483744,-2.010367l0,2.640995zm-3.603499,-1.38993l-2.247967,-2.245419l6.150856,-3.553176l2.247967,2.247967l-6.150856,3.550628z"/>
  </g>
 </g>
</svg>