<svg width="48" height="48" viewBox="0 0 48 48" fill="none" xmlns="http://www.w3.org/2000/svg">
<g clip-path="url(#clip0_811_624)">
<g filter="url(#filter0_ii_811_624)">
<path d="M0 19.1616C0 3.38202 3.38202 0 19.1616 0H28.8384C44.618 0 48 3.38202 48 19.1616V28.8384C48 44.618 44.618 48 28.8384 48H19.1616C3.38202 48 0 44.618 0 28.8384V19.1616Z" fill="url(#paint0_radial_811_624)"/>
<path d="M0 19.1616C0 3.38202 3.38202 0 19.1616 0H28.8384C44.618 0 48 3.38202 48 19.1616V28.8384C48 44.618 44.618 48 28.8384 48H19.1616C3.38202 48 0 44.618 0 28.8384V19.1616Z" fill="url(#paint1_linear_811_624)"/>
</g>
<path d="M0 19.1616C0 3.38202 3.38202 0 19.1616 0H28.8384C44.618 0 48 3.38202 48 19.1616V28.8384C48 44.618 44.618 48 28.8384 48H19.1616C3.38202 48 0 44.618 0 28.8384V19.1616Z" fill="url(#paint2_radial_811_624)"/>
<path d="M0 19.1616C0 3.38202 3.38202 0 19.1616 0H28.8384C44.618 0 48 3.38202 48 19.1616V28.8384C48 44.618 44.618 48 28.8384 48H19.1616C3.38202 48 0 44.618 0 28.8384V19.1616Z" fill="url(#paint3_radial_811_624)"/>
<g filter="url(#filter1_di_811_624)">
<path d="M21.2 36.25C21.272 35.9022 21.3809 35.5675 21.5225 35.25C21.7727 34.6888 22.125 34.1813 22.5564 33.75C23.4824 32.8243 24.7727 32.25 26.2 32.25C27.6272 32.25 28.9176 32.8243 29.8436 33.75C30.275 34.1813 30.6273 34.6888 30.8775 35.25C31.0191 35.5675 31.1279 35.9022 31.2 36.25" stroke="url(#paint4_radial_811_624)" stroke-width="3.5" stroke-linecap="round" stroke-linejoin="round"/>
<rect x="25.2" y="15.5" width="9.5" height="3.5" rx="1.75" fill="url(#paint5_radial_811_624)"/>
<circle cx="26" cy="22.5" r="5.25" stroke="url(#paint6_radial_811_624)" stroke-width="3.5"/>
<rect x="13" y="15.5" width="3.5" height="14" rx="1.75" fill="url(#paint7_radial_811_624)"/>
<circle cx="14.75" cy="12.75" r="1.75" fill="url(#paint8_radial_811_624)"/>
</g>
<g filter="url(#filter2_d_811_624)">
<path d="M38.1359 4.48359C38.5216 3.82132 39.4784 3.82132 39.8641 4.48359L40.7179 5.94946C40.8592 6.19206 41.096 6.36409 41.3704 6.42351L43.0283 6.78253C43.7774 6.94474 44.073 7.85466 43.5624 8.42617L42.4321 9.69116C42.245 9.90051 42.1546 10.1789 42.1829 10.4582L42.3538 12.1459C42.431 12.9085 41.6569 13.4708 40.9556 13.1618L39.4032 12.4777C39.1463 12.3645 38.8537 12.3645 38.5968 12.4777L37.0444 13.1618C36.3431 13.4708 35.569 12.9085 35.6462 12.1459L35.8171 10.4582C35.8454 10.1789 35.755 9.90051 35.5679 9.69116L34.4376 8.42617C33.927 7.85466 34.2226 6.94474 34.9717 6.78253L36.6296 6.42351C36.904 6.36409 37.1408 6.19206 37.2821 5.94946L38.1359 4.48359Z" fill="url(#paint9_linear_811_624)"/>
<path d="M38.1359 4.48359C38.5216 3.82132 39.4784 3.82132 39.8641 4.48359L40.7179 5.94946C40.8592 6.19206 41.096 6.36409 41.3704 6.42351L43.0283 6.78253C43.7774 6.94474 44.073 7.85466 43.5624 8.42617L42.4321 9.69116C42.245 9.90051 42.1546 10.1789 42.1829 10.4582L42.3538 12.1459C42.431 12.9085 41.6569 13.4708 40.9556 13.1618L39.4032 12.4777C39.1463 12.3645 38.8537 12.3645 38.5968 12.4777L37.0444 13.1618C36.3431 13.4708 35.569 12.9085 35.6462 12.1459L35.8171 10.4582C35.8454 10.1789 35.755 9.90051 35.5679 9.69116L34.4376 8.42617C33.927 7.85466 34.2226 6.94474 34.9717 6.78253L36.6296 6.42351C36.904 6.36409 37.1408 6.19206 37.2821 5.94946L38.1359 4.48359Z" fill="url(#paint10_linear_811_624)"/>
<path d="M38.1359 4.48359C38.5216 3.82132 39.4784 3.82132 39.8641 4.48359L40.7179 5.94946C40.8592 6.19206 41.096 6.36409 41.3704 6.42351L43.0283 6.78253C43.7774 6.94474 44.073 7.85466 43.5624 8.42617L42.4321 9.69116C42.245 9.90051 42.1546 10.1789 42.1829 10.4582L42.3538 12.1459C42.431 12.9085 41.6569 13.4708 40.9556 13.1618L39.4032 12.4777C39.1463 12.3645 38.8537 12.3645 38.5968 12.4777L37.0444 13.1618C36.3431 13.4708 35.569 12.9085 35.6462 12.1459L35.8171 10.4582C35.8454 10.1789 35.755 9.90051 35.5679 9.69116L34.4376 8.42617C33.927 7.85466 34.2226 6.94474 34.9717 6.78253L36.6296 6.42351C36.904 6.36409 37.1408 6.19206 37.2821 5.94946L38.1359 4.48359Z" fill="url(#paint11_radial_811_624)"/>
</g>
</g>
<defs>
<filter id="filter0_ii_811_624" x="-0.5" y="-0.5" width="48.5" height="48.5" filterUnits="userSpaceOnUse" color-interpolation-filters="sRGB">
<feFlood flood-opacity="0" result="BackgroundImageFix"/>
<feBlend mode="normal" in="SourceGraphic" in2="BackgroundImageFix" result="shape"/>
<feColorMatrix in="SourceAlpha" type="matrix" values="0 0 0 0 0 0 0 0 0 0 0 0 0 0 0 0 0 0 127 0" result="hardAlpha"/>
<feOffset dx="-0.5" dy="-0.5"/>
<feGaussianBlur stdDeviation="1"/>
<feComposite in2="hardAlpha" operator="arithmetic" k2="-1" k3="1"/>
<feColorMatrix type="matrix" values="0 0 0 0 0 0 0 0 0 0.529412 0 0 0 0 0.768627 0 0 0 1 0"/>
<feBlend mode="normal" in2="shape" result="effect1_innerShadow_811_624"/>
<feColorMatrix in="SourceAlpha" type="matrix" values="0 0 0 0 0 0 0 0 0 0 0 0 0 0 0 0 0 0 127 0" result="hardAlpha"/>
<feOffset dx="-0.25"/>
<feGaussianBlur stdDeviation="0.25"/>
<feComposite in2="hardAlpha" operator="arithmetic" k2="-1" k3="1"/>
<feColorMatrix type="matrix" values="0 0 0 0 0.164706 0 0 0 0 0.411765 0 0 0 0 0.823529 0 0 0 1 0"/>
<feBlend mode="normal" in2="effect1_innerShadow_811_624" result="effect2_innerShadow_811_624"/>
</filter>
<filter id="filter1_di_811_624" x="-7.00001" y="-9" width="61.7" height="67.0004" filterUnits="userSpaceOnUse" color-interpolation-filters="sRGB">
<feFlood flood-opacity="0" result="BackgroundImageFix"/>
<feColorMatrix in="SourceAlpha" type="matrix" values="0 0 0 0 0 0 0 0 0 0 0 0 0 0 0 0 0 0 127 0" result="hardAlpha"/>
<feOffset/>
<feGaussianBlur stdDeviation="10"/>
<feComposite in2="hardAlpha" operator="out"/>
<feColorMatrix type="matrix" values="0 0 0 0 0 0 0 0 0 0 0 0 0 0 0 0 0 0 0.3 0"/>
<feBlend mode="normal" in2="BackgroundImageFix" result="effect1_dropShadow_811_624"/>
<feBlend mode="normal" in="SourceGraphic" in2="effect1_dropShadow_811_624" result="shape"/>
<feColorMatrix in="SourceAlpha" type="matrix" values="0 0 0 0 0 0 0 0 0 0 0 0 0 0 0 0 0 0 127 0" result="hardAlpha"/>
<feOffset dx="1" dy="-1"/>
<feGaussianBlur stdDeviation="1.5"/>
<feComposite in2="hardAlpha" operator="arithmetic" k2="-1" k3="1"/>
<feColorMatrix type="matrix" values="0 0 0 0 0.879238 0 0 0 0 0.920128 0 0 0 0 0.938613 0 0 0 1 0"/>
<feBlend mode="normal" in2="shape" result="effect2_innerShadow_811_624"/>
</filter>
<filter id="filter2_d_811_624" x="29.1825" y="0.986877" width="19.635" height="19.2613" filterUnits="userSpaceOnUse" color-interpolation-filters="sRGB">
<feFlood flood-opacity="0" result="BackgroundImageFix"/>
<feColorMatrix in="SourceAlpha" type="matrix" values="0 0 0 0 0 0 0 0 0 0 0 0 0 0 0 0 0 0 127 0" result="hardAlpha"/>
<feOffset dy="2"/>
<feGaussianBlur stdDeviation="2.5"/>
<feComposite in2="hardAlpha" operator="out"/>
<feColorMatrix type="matrix" values="0 0 0 0 0 0 0 0 0 0 0 0 0 0 0 0 0 0 0.3 0"/>
<feBlend mode="normal" in2="BackgroundImageFix" result="effect1_dropShadow_811_624"/>
<feBlend mode="normal" in="SourceGraphic" in2="effect1_dropShadow_811_624" result="shape"/>
</filter>
<radialGradient id="paint0_radial_811_624" cx="0" cy="0" r="1" gradientUnits="userSpaceOnUse" gradientTransform="translate(17.4545 14.7292) rotate(58.5309) scale(47.541 57.3913)">
<stop stop-color="#0096D8"/>
<stop offset="1" stop-color="#0067C6"/>
</radialGradient>
<linearGradient id="paint1_linear_811_624" x1="24" y1="51.8123" x2="24" y2="38.1227" gradientUnits="userSpaceOnUse">
<stop stop-color="#0067C6"/>
<stop offset="1" stop-color="#508BFF" stop-opacity="0"/>
</linearGradient>
<radialGradient id="paint2_radial_811_624" cx="0" cy="0" r="1" gradientUnits="userSpaceOnUse" gradientTransform="translate(6.31579 4.29474) rotate(47.3859) scale(34.3282 35.5219)">
<stop stop-color="#008BCB"/>
<stop offset="1" stop-color="#50CAFF" stop-opacity="0"/>
</radialGradient>
<radialGradient id="paint3_radial_811_624" cx="0" cy="0" r="1" gradientUnits="userSpaceOnUse" gradientTransform="translate(50.1818 51.2924) rotate(-134.62) scale(64.609 57.3011)">
<stop offset="0.875947" stop-color="#0089C6" stop-opacity="0"/>
<stop offset="1" stop-color="#0096DA"/>
</radialGradient>
<radialGradient id="paint4_radial_811_624" cx="0" cy="0" r="1" gradientUnits="userSpaceOnUse" gradientTransform="translate(28.5191 31.75) rotate(147.621) scale(9.33666 10.1124)">
<stop offset="0.254198" stop-color="white"/>
<stop offset="0.726314" stop-color="#A7D5F7"/>
</radialGradient>
<radialGradient id="paint5_radial_811_624" cx="0" cy="0" r="1" gradientUnits="userSpaceOnUse" gradientTransform="translate(31.4768 16.3122) rotate(152.724) scale(5.72595 4.93114)">
<stop offset="0.212753" stop-color="white"/>
<stop offset="0.742622" stop-color="#BDE3FF"/>
</radialGradient>
<radialGradient id="paint6_radial_811_624" cx="0" cy="0" r="1" gradientUnits="userSpaceOnUse" gradientTransform="translate(28.8 17.6) rotate(119.539) scale(12.0687)">
<stop offset="0.14255" stop-color="white"/>
<stop offset="0.557835" stop-color="#A7D5F7"/>
</radialGradient>
<radialGradient id="paint7_radial_811_624" cx="0" cy="0" r="1" gradientUnits="userSpaceOnUse" gradientTransform="translate(15.3125 18.7488) rotate(100.128) scale(10.6624 3.90251)">
<stop offset="0.212753" stop-color="white"/>
<stop offset="0.742622" stop-color="#BDE3FF"/>
</radialGradient>
<radialGradient id="paint8_radial_811_624" cx="0" cy="0" r="1" gradientUnits="userSpaceOnUse" gradientTransform="translate(15.3125 11.8122) rotate(125.547) scale(3.22511 3.22548)">
<stop offset="0.212753" stop-color="white"/>
<stop offset="0.742622" stop-color="#BDE3FF"/>
</radialGradient>
<linearGradient id="paint9_linear_811_624" x1="45" y1="7.9451" x2="33.8208" y2="7.9451" gradientUnits="userSpaceOnUse">
<stop stop-color="#FFD65C"/>
<stop offset="1" stop-color="#FF8C42"/>
</linearGradient>
<linearGradient id="paint10_linear_811_624" x1="39" y1="10.7796" x2="36.4393" y2="13.6851" gradientUnits="userSpaceOnUse">
<stop stop-color="#FF8C42" stop-opacity="0"/>
<stop offset="1" stop-color="#FF8C42"/>
</linearGradient>
<radialGradient id="paint11_radial_811_624" cx="0" cy="0" r="1" gradientUnits="userSpaceOnUse" gradientTransform="translate(45 4.59529) rotate(90) scale(7.42113 1.91878)">
<stop stop-color="#FFD65C"/>
<stop offset="1" stop-color="#FFD65C" stop-opacity="0"/>
</radialGradient>
<clipPath id="clip0_811_624">
<rect width="48" height="48" fill="white"/>
</clipPath>
</defs>
</svg>
