<svg width="200" height="200" viewBox="0 0 200 200" fill="none" xmlns="http://www.w3.org/2000/svg">
<path d="M160.938 1.17188H39.0625C18.1361 1.17188 1.17188 18.1361 1.17188 39.0625V160.938C1.17188 181.864 18.1361 198.828 39.0625 198.828H160.938C181.864 198.828 198.828 181.864 198.828 160.938V39.0625C198.828 18.1361 181.864 1.17188 160.938 1.17188Z" fill="url(#paint0_radial_103_2)"/>
<path d="M160.938 1.17188H39.0625C18.1361 1.17188 1.17188 18.1361 1.17188 39.0625V160.938C1.17188 181.864 18.1361 198.828 39.0625 198.828H160.938C181.864 198.828 198.828 181.864 198.828 160.938V39.0625C198.828 18.1361 181.864 1.17188 160.938 1.17188Z" fill="url(#paint1_linear_103_2)"/>
<path d="M39.0625 2.67188H160.938C181.035 2.67188 197.328 18.9645 197.328 39.0625V160.938C197.328 181.035 181.035 197.328 160.938 197.328H39.0625C18.9645 197.328 2.67188 181.035 2.67188 160.938V39.0625C2.67188 18.9645 18.9645 2.67188 39.0625 2.67188Z" stroke="#003648" stroke-opacity="0.3" stroke-width="3"/>
<mask id="path-3-outside-1_103_2" maskUnits="userSpaceOnUse" x="55" y="44" width="90" height="112" fill="black">
<rect fill="white" x="55" y="44" width="90" height="112"/>
<path fill-rule="evenodd" clip-rule="evenodd" d="M63.9052 46C60.0928 46 57.0025 49.0907 57.0025 52.9027C57.0025 56.7147 60.0932 59.8054 63.9052 59.8054C67.7172 59.8054 70.8079 56.7147 70.8079 52.9027C70.8079 49.0907 67.718 46 63.9052 46ZM68.7343 121.927H59.0712C57.9274 121.927 57 121 57 119.855V65.3257C57 64.182 57.927 63.2546 59.0712 63.2546H68.7352C69.8789 63.2546 70.8063 64.1816 70.8063 65.3257V119.856C70.8054 121 69.8784 121.927 68.7343 121.927ZM107.906 62.5283C108.503 62.5283 109.096 62.5461 109.684 62.5813C109.834 62.5466 109.991 62.5283 110.152 62.5283H140.523C141.667 62.5283 142.594 63.4553 142.594 64.5995V74.2635C142.594 75.4072 141.668 76.3345 140.523 76.3345H132.8C135.615 80.8385 137.243 86.1616 137.243 91.8648C137.243 108.066 124.108 121.201 107.906 121.201C91.7043 121.201 78.5699 108.066 78.5699 91.8648C78.5699 75.6626 91.7043 62.5283 107.906 62.5283ZM107.906 76.3333C116.47 76.3333 123.436 83.3007 123.436 91.864C123.436 100.427 116.469 107.394 107.906 107.394C99.3426 107.394 92.3754 100.427 92.3754 91.864C92.3754 83.3007 99.3426 76.3333 107.906 76.3333ZM121.599 151.804C120.726 145.026 114.918 139.771 107.907 139.771C100.896 139.771 95.0887 145.026 94.216 151.804C94.0848 152.823 93.1988 153.577 92.1699 153.577H82.4512C81.2574 153.577 80.2895 152.569 80.3824 151.38C81.5027 137.158 93.398 125.966 107.907 125.966C122.417 125.966 134.313 137.158 135.432 151.38C135.525 152.569 134.557 153.577 133.364 153.577H123.644C122.616 153.577 121.73 152.823 121.599 151.804Z"/>
</mask>
<path fill-rule="evenodd" clip-rule="evenodd" d="M63.9052 46C60.0928 46 57.0025 49.0907 57.0025 52.9027C57.0025 56.7147 60.0932 59.8054 63.9052 59.8054C67.7172 59.8054 70.8079 56.7147 70.8079 52.9027C70.8079 49.0907 67.718 46 63.9052 46ZM68.7343 121.927H59.0712C57.9274 121.927 57 121 57 119.855V65.3257C57 64.182 57.927 63.2546 59.0712 63.2546H68.7352C69.8789 63.2546 70.8063 64.1816 70.8063 65.3257V119.856C70.8054 121 69.8784 121.927 68.7343 121.927ZM107.906 62.5283C108.503 62.5283 109.096 62.5461 109.684 62.5813C109.834 62.5466 109.991 62.5283 110.152 62.5283H140.523C141.667 62.5283 142.594 63.4553 142.594 64.5995V74.2635C142.594 75.4072 141.668 76.3345 140.523 76.3345H132.8C135.615 80.8385 137.243 86.1616 137.243 91.8648C137.243 108.066 124.108 121.201 107.906 121.201C91.7043 121.201 78.5699 108.066 78.5699 91.8648C78.5699 75.6626 91.7043 62.5283 107.906 62.5283ZM107.906 76.3333C116.47 76.3333 123.436 83.3007 123.436 91.864C123.436 100.427 116.469 107.394 107.906 107.394C99.3426 107.394 92.3754 100.427 92.3754 91.864C92.3754 83.3007 99.3426 76.3333 107.906 76.3333ZM121.599 151.804C120.726 145.026 114.918 139.771 107.907 139.771C100.896 139.771 95.0887 145.026 94.216 151.804C94.0848 152.823 93.1988 153.577 92.1699 153.577H82.4512C81.2574 153.577 80.2895 152.569 80.3824 151.38C81.5027 137.158 93.398 125.966 107.907 125.966C122.417 125.966 134.313 137.158 135.432 151.38C135.525 152.569 134.557 153.577 133.364 153.577H123.644C122.616 153.577 121.73 152.823 121.599 151.804Z" fill="white"/>
<path d="M70.8063 119.856L72.8063 119.858V119.856H70.8063ZM109.684 62.5813L109.565 64.5777L109.853 64.5949L110.134 64.5301L109.684 62.5813ZM132.8 76.3345V74.3345H129.191L131.104 77.3948L132.8 76.3345ZM121.599 151.804L123.582 151.548L123.582 151.548L121.599 151.804ZM94.216 151.804L92.2324 151.548L92.2324 151.548L94.216 151.804ZM80.3824 151.38L78.3886 151.223L78.3885 151.224L80.3824 151.38ZM135.432 151.38L133.438 151.537L133.438 151.538L135.432 151.38ZM59.0025 52.9027C59.0025 50.1952 61.1974 48 63.9052 48V44C58.9882 44 55.0025 47.9862 55.0025 52.9027H59.0025ZM63.9052 57.8054C61.1978 57.8054 59.0025 55.6101 59.0025 52.9027H55.0025C55.0025 57.8193 58.9886 61.8054 63.9052 61.8054V57.8054ZM68.8079 52.9027C68.8079 55.6101 66.6126 57.8054 63.9052 57.8054V61.8054C68.8218 61.8054 72.8079 57.8192 72.8079 52.9027H68.8079ZM63.9052 48C66.6133 48 68.8079 50.1951 68.8079 52.9027H72.8079C72.8079 47.9863 68.8228 44 63.9052 44V48ZM59.0712 123.927H68.7343V119.927H59.0712V123.927ZM55 119.855C55 122.104 56.8225 123.927 59.0712 123.927V119.927C59.0324 119.927 59 119.896 59 119.855H55ZM55 65.3257V119.855H59V65.3257H55ZM59.0712 61.2546C56.8221 61.2546 55 63.0777 55 65.3257H59C59 65.2864 59.0318 65.2546 59.0712 65.2546V61.2546ZM68.7352 61.2546H59.0712V65.2546H68.7352V61.2546ZM72.8063 65.3257C72.8063 63.0767 70.9832 61.2546 68.7352 61.2546V65.2546C68.7746 65.2546 68.8063 65.2864 68.8063 65.3257H72.8063ZM72.8063 119.856V65.3257H68.8063V119.856H72.8063ZM68.7343 123.927C70.9835 123.927 72.8046 122.104 72.8063 119.858L68.8063 119.855C68.8062 119.896 68.7733 119.927 68.7343 119.927V123.927ZM109.804 60.5849C109.176 60.5473 108.543 60.5283 107.906 60.5283V64.5283C108.463 64.5283 109.016 64.5449 109.565 64.5777L109.804 60.5849ZM110.152 60.5283C109.839 60.5283 109.531 60.564 109.235 60.6325L110.134 64.5301C110.138 64.5292 110.143 64.5283 110.152 64.5283V60.5283ZM140.523 60.5283H110.152V64.5283H140.523V60.5283ZM144.594 64.5995C144.594 62.3506 142.771 60.5283 140.523 60.5283V64.5283C140.562 64.5283 140.594 64.56 140.594 64.5995H144.594ZM144.594 74.2635V64.5995H140.594V74.2635H144.594ZM140.523 78.3345C142.773 78.3345 144.594 76.5113 144.594 74.2635H140.594C140.594 74.3031 140.563 74.3345 140.523 74.3345V78.3345ZM132.8 78.3345H140.523V74.3345H132.8V78.3345ZM139.243 91.8648C139.243 85.7759 137.504 80.0869 134.495 75.2743L131.104 77.3948C133.726 81.59 135.243 86.5472 135.243 91.8648H139.243ZM107.906 123.201C125.213 123.201 139.243 109.171 139.243 91.8648H135.243C135.243 106.962 123.004 119.201 107.906 119.201V123.201ZM76.5699 91.8648C76.5699 109.171 90.5997 123.201 107.906 123.201V119.201C92.8089 119.201 80.5699 106.962 80.5699 91.8648H76.5699ZM107.906 60.5283C90.5997 60.5283 76.5699 74.558 76.5699 91.8648H80.5699C80.5699 76.7671 92.8089 64.5283 107.906 64.5283V60.5283ZM125.436 91.864C125.436 82.1963 117.575 74.3333 107.906 74.3333V78.3333C115.365 78.3333 121.436 84.4052 121.436 91.864H125.436ZM107.906 109.394C117.574 109.394 125.436 101.532 125.436 91.864H121.436C121.436 99.3227 115.365 105.394 107.906 105.394V109.394ZM90.3754 91.864C90.3754 101.532 98.238 109.394 107.906 109.394V105.394C100.447 105.394 94.3754 99.3227 94.3754 91.864H90.3754ZM107.906 74.3333C98.238 74.3333 90.3754 82.1962 90.3754 91.864H94.3754C94.3754 84.4052 100.447 78.3333 107.906 78.3333V74.3333ZM107.907 141.771C113.899 141.771 118.869 146.265 119.615 152.059L123.582 151.548C122.583 143.787 115.938 137.771 107.907 137.771V141.771ZM96.1996 152.059C96.9457 146.265 101.916 141.771 107.907 141.771V137.771C99.8756 137.771 93.2317 143.787 92.2324 151.548L96.1996 152.059ZM92.1699 155.577C94.169 155.577 95.9355 154.111 96.1996 152.059L92.2324 151.548C92.2322 151.55 92.2321 151.55 92.2324 151.549C92.2326 151.548 92.2328 151.548 92.2327 151.548C92.2325 151.549 92.2301 151.553 92.2238 151.558C92.2101 151.57 92.1917 151.577 92.1699 151.577V155.577ZM82.4512 155.577H92.1699V151.577H82.4512V155.577ZM78.3885 151.224C78.201 153.623 80.1392 155.577 82.4512 155.577V151.577C82.4364 151.577 82.4257 151.574 82.4162 151.57C82.4052 151.565 82.3945 151.558 82.386 151.549C82.3777 151.54 82.3754 151.534 82.3755 151.534C82.3763 151.537 82.3761 151.539 82.3763 151.536L78.3885 151.224ZM107.907 123.966C92.3461 123.966 79.5902 135.969 78.3886 151.223L82.3762 151.537C83.4153 138.347 94.45 127.966 107.907 127.966V123.966ZM137.425 151.224C136.226 135.968 123.469 123.966 107.907 123.966V127.966C121.365 127.966 132.4 138.347 133.438 151.537L137.425 151.224ZM133.364 155.577C135.674 155.577 137.615 153.624 137.425 151.223L133.438 151.538C133.438 151.54 133.438 151.537 133.439 151.535C133.439 151.534 133.437 151.54 133.428 151.549C133.42 151.558 133.409 151.566 133.398 151.57C133.389 151.575 133.378 151.577 133.364 151.577V155.577ZM123.644 155.577H133.364V151.577H123.644V155.577ZM119.615 152.059C119.879 154.111 121.645 155.577 123.644 155.577V151.577C123.623 151.577 123.605 151.57 123.591 151.558C123.585 151.553 123.582 151.549 123.582 151.548C123.582 151.548 123.582 151.548 123.582 151.549C123.583 151.55 123.583 151.55 123.582 151.548L119.615 152.059Z" fill="#003648" fill-opacity="0.5" mask="url(#path-3-outside-1_103_2)"/>
<path d="M161.408 10.4508C162.565 8.46396 165.435 8.46396 166.592 10.4508L173.033 21.5089C173.457 22.2367 174.167 22.7528 174.991 22.931L187.498 25.6394C189.745 26.126 190.632 28.8558 189.1 30.5703L180.573 40.113C180.012 40.741 179.741 41.5761 179.826 42.4141L181.115 55.146C181.346 57.4336 179.024 59.1207 176.92 58.1935L165.21 53.0331C164.439 52.6935 163.561 52.6935 162.79 53.0331L151.08 58.1935C148.976 59.1207 146.654 57.4336 146.885 55.146L148.174 42.4141C148.259 41.5761 147.988 40.741 147.427 40.113L138.9 30.5703C137.368 28.8558 138.255 26.126 140.502 25.6394L153.009 22.931C153.833 22.7528 154.543 22.2367 154.967 21.5089L161.408 10.4508Z" fill="url(#paint2_angular_103_2)" fill-opacity="0.5"/>
<path d="M161.408 10.4508C162.565 8.46396 165.435 8.46396 166.592 10.4508L173.033 21.5089C173.457 22.2367 174.167 22.7528 174.991 22.931L187.498 25.6394C189.745 26.126 190.632 28.8558 189.1 30.5703L180.573 40.113C180.012 40.741 179.741 41.5761 179.826 42.4141L181.115 55.146C181.346 57.4336 179.024 59.1207 176.92 58.1935L165.21 53.0331C164.439 52.6935 163.561 52.6935 162.79 53.0331L151.08 58.1935C148.976 59.1207 146.654 57.4336 146.885 55.146L148.174 42.4141C148.259 41.5761 147.988 40.741 147.427 40.113L138.9 30.5703C137.368 28.8558 138.255 26.126 140.502 25.6394L153.009 22.931C153.833 22.7528 154.543 22.2367 154.967 21.5089L161.408 10.4508Z" fill="url(#paint3_angular_103_2)" fill-opacity="0.75"/>
<path d="M161.408 10.4508C162.565 8.46396 165.435 8.46396 166.592 10.4508L173.033 21.5089C173.457 22.2367 174.167 22.7528 174.991 22.931L187.498 25.6394C189.745 26.126 190.632 28.8558 189.1 30.5703L180.573 40.113C180.012 40.741 179.741 41.5761 179.826 42.4141L181.115 55.146C181.346 57.4336 179.024 59.1207 176.92 58.1935L165.21 53.0331C164.439 52.6935 163.561 52.6935 162.79 53.0331L151.08 58.1935C148.976 59.1207 146.654 57.4336 146.885 55.146L148.174 42.4141C148.259 41.5761 147.988 40.741 147.427 40.113L138.9 30.5703C137.368 28.8558 138.255 26.126 140.502 25.6394L153.009 22.931C153.833 22.7528 154.543 22.2367 154.967 21.5089L161.408 10.4508Z" fill="url(#paint4_angular_103_2)" fill-opacity="0.5"/>
<path d="M165.728 10.9541L172.169 22.0122C172.734 22.9826 173.681 23.6707 174.779 23.9084L187.286 26.6167C188.784 26.9412 189.375 28.761 188.354 29.904L179.828 39.4467C179.079 40.2841 178.718 41.3975 178.831 42.5148L180.12 55.2468C180.274 56.7718 178.726 57.8965 177.323 57.2784L165.613 52.118C164.585 51.6651 163.415 51.6652 162.387 52.118L150.677 57.2784C149.274 57.8965 147.726 56.7718 147.88 55.2468L149.169 42.5148C149.282 41.3975 148.921 40.2841 148.172 39.4467L139.646 29.904C138.625 28.761 139.216 26.9412 140.714 26.6167L153.221 23.9084C154.319 23.6707 155.266 22.9826 155.831 22.0122L162.272 10.9541C163.043 9.62953 164.957 9.62953 165.728 10.9541Z" stroke="white" stroke-opacity="0.75" stroke-width="2"/>
<defs>
<radialGradient id="paint0_radial_103_2" cx="0" cy="0" r="1" gradientUnits="userSpaceOnUse" gradientTransform="translate(-15.5 35.5) rotate(42.2409) scale(176.274)">
<stop stop-color="#FFC34F"/>
<stop offset="0.423787" stop-color="#519E8C"/>
<stop offset="0.779824" stop-color="#13727F"/>
<stop offset="1" stop-color="#016485"/>
</radialGradient>
<linearGradient id="paint1_linear_103_2" x1="279" y1="209" x2="150" y2="161.5" gradientUnits="userSpaceOnUse">
<stop offset="0.120772" stop-color="#00FFFF"/>
<stop offset="1" stop-color="#AE964A" stop-opacity="0"/>
</linearGradient>
<radialGradient id="paint2_angular_103_2" cx="0" cy="0" r="1" gradientUnits="userSpaceOnUse" gradientTransform="translate(164 36) rotate(127.117) scale(27.8403)">
<stop stop-color="#FFBD00"/>
<stop offset="1" stop-color="#D9D9D9" stop-opacity="0"/>
</radialGradient>
<radialGradient id="paint3_angular_103_2" cx="0" cy="0" r="1" gradientUnits="userSpaceOnUse" gradientTransform="translate(164 36) rotate(-90) scale(30)">
<stop stop-color="#FFBD00"/>
<stop offset="1" stop-color="#FFBD00" stop-opacity="0"/>
</radialGradient>
<radialGradient id="paint4_angular_103_2" cx="0" cy="0" r="1" gradientUnits="userSpaceOnUse" gradientTransform="translate(164 36) rotate(-161.565) scale(28.4605)">
<stop stop-color="#FFBD00"/>
<stop offset="1" stop-color="#FFBD00" stop-opacity="0"/>
</radialGradient>
</defs>
</svg>
