<svg width="512" height="512" viewBox="0 0 512 512" fill="none" xmlns="http://www.w3.org/2000/svg">
<path d="M300.77 383.73H211.24V428.16H300.77V383.73Z" fill="#929292"/>
<path d="M231.082 383.73H211.24V428.16H231.082V383.73Z" fill="#636363"/>
<path d="M345.098 453.795C345.098 456.23 343.105 458.225 340.669 458.225H171.331C168.895 458.225 166.901 456.23 166.901 453.795V431.592C166.901 429.157 168.895 427.162 171.331 427.162H340.668C343.104 427.162 345.097 429.157 345.097 431.592V453.795H345.098Z" fill="#868686"/>
<path d="M186.744 453.795V431.592C186.744 429.157 188.738 427.162 191.174 427.162H171.332C168.896 427.162 166.902 429.157 166.902 431.592V453.795C166.902 456.23 168.896 458.225 171.332 458.225H191.174C188.737 458.225 186.744 456.229 186.744 453.795Z" fill="#666666"/>
<path d="M506.198 42.867H5.803C2.611 42.867 0 45.479 0 48.672V378.926C0 382.117 2.611 384.729 5.803 384.729H350.268V367.384C350.268 365.617 351.704 364.181 353.471 364.181H366.957C369.711 364.181 372.577 362.142 373.482 359.54L376.029 353.421C377.227 351.004 376.65 347.542 374.689 345.6L365.171 336.157C364.569 335.558 364.237 334.759 364.237 333.906C364.237 333.053 364.569 332.254 365.172 331.655L382.433 314.529C383.038 313.928 383.847 313.597 384.712 313.597C385.576 313.597 386.386 313.928 386.991 314.529L396.508 323.972C397.727 325.182 399.61 325.906 401.543 325.906C402.583 325.906 403.575 325.69 404.412 325.283L410.613 322.742C413.167 321.871 415.211 319.012 415.211 316.255V302.936C415.211 301.169 416.647 299.733 418.413 299.733H442.852C444.618 299.733 446.054 301.17 446.054 302.936V316.255C446.054 319.013 448.098 321.871 450.707 322.764L456.914 325.31C457.691 325.691 458.684 325.906 459.723 325.906C461.657 325.906 463.539 325.183 464.759 323.973L474.277 314.53C474.882 313.929 475.691 313.598 476.555 313.598C477.419 313.598 478.228 313.929 478.833 314.53L496.091 331.657C496.694 332.256 497.026 333.055 497.026 333.908C497.026 334.76 496.693 335.56 496.091 336.158L486.576 345.602C484.615 347.543 484.038 351.005 485.262 353.482L487.804 359.596C488.686 362.143 491.551 364.182 494.307 364.182H507.794C509.561 364.182 510.997 365.618 510.997 367.385V382.173C511.628 381.245 511.997 380.127 511.997 378.927V48.672C512 45.479 509.389 42.867 506.198 42.867Z" fill="#868686"/>
<path d="M25 326.174C25 328.279 26.5702 330 28.4892 330H366.884L382.694 312.8C383.3 312.139 384.111 311.776 384.978 311.776C385.844 311.776 386.655 312.139 387.262 312.8L396.798 323.175C398.02 324.504 399.906 325.3 401.843 325.3C402.886 325.3 403.88 325.062 404.718 324.615L410.932 321.823C413.491 320.866 415.54 317.725 415.54 314.696V300.062C415.54 298.121 416.978 296.543 418.748 296.543H443.237C445.007 296.543 446.446 298.122 446.446 300.062V314.696C446.446 317.726 448.494 320.866 451.108 321.848L457.328 324.645C458.107 325.063 459.102 325.3 460.143 325.3C462.081 325.3 463.967 324.505 465.189 323.176L474.727 312.801C475.333 312.14 476.144 311.777 477.01 311.777C477.875 311.777 478.686 312.14 479.292 312.801L487 321.188V77H25V326.174Z" fill="white"/>
<path d="M256 373.017C264.653 373.017 271.667 366.003 271.667 357.35C271.667 348.697 264.653 341.683 256 341.683C247.347 341.683 240.333 348.697 240.333 357.35C240.333 366.003 247.347 373.017 256 373.017Z" fill="#C1C1C1"/>
<path d="M430.432 147.983H298.56C294.418 147.983 291.06 144.626 291.06 140.483C291.06 136.34 294.418 132.983 298.56 132.983H430.431C434.574 132.983 437.931 136.34 437.931 140.483C437.932 144.626 434.574 147.983 430.432 147.983Z" fill="#01336B"/>
<path d="M430.432 172.471H298.56C294.418 172.471 291.06 169.114 291.06 164.971C291.06 160.828 294.418 157.471 298.56 157.471H430.431C434.574 157.471 437.931 160.828 437.931 164.971C437.932 169.113 434.574 172.471 430.432 172.471Z" fill="#01336B"/>
<path d="M430.432 196.958H298.56C294.418 196.958 291.06 193.601 291.06 189.458C291.06 185.315 294.418 181.958 298.56 181.958H430.431C434.574 181.958 437.931 185.315 437.931 189.458C437.932 193.601 434.574 196.958 430.432 196.958Z" fill="#01336B"/>
<path d="M430.432 237.979H298.56C294.418 237.979 291.06 234.622 291.06 230.479C291.06 226.336 294.418 222.979 298.56 222.979H430.431C434.574 222.979 437.931 226.336 437.931 230.479C437.931 234.622 434.574 237.979 430.432 237.979Z" fill="#019FC5"/>
<path d="M430.432 262.466H298.56C294.418 262.466 291.06 259.109 291.06 254.966C291.06 250.823 294.418 247.466 298.56 247.466H430.431C434.574 247.466 437.931 250.823 437.931 254.966C437.932 259.108 434.574 262.466 430.432 262.466Z" fill="#019FC5"/>
<path d="M364.085 286.953H298.56C294.418 286.953 291.06 283.596 291.06 279.453C291.06 275.31 294.418 271.953 298.56 271.953H364.085C368.228 271.953 371.585 275.31 371.585 279.453C371.585 283.596 368.228 286.953 364.085 286.953Z" fill="#019FC5"/>
<rect x="66.5" y="114.5" width="182" height="182" rx="36.5" fill="url(#paint0_linear)" stroke="url(#paint1_linear)" stroke-width="3"/>
<g filter="url(#filter0_d)">
<path d="M123.906 156.899C120.38 156.899 117.521 159.757 117.521 163.284C117.521 166.81 120.38 169.669 123.906 169.669C127.433 169.669 130.291 166.81 130.291 163.284C130.291 159.757 127.433 156.899 123.906 156.899Z" fill="white"/>
<path d="M128.374 227.131H119.435C118.377 227.131 117.519 226.273 117.519 225.215V174.775C117.519 173.717 118.377 172.859 119.435 172.859H128.374C129.432 172.859 130.29 173.716 130.29 174.775V225.215C130.289 226.273 129.432 227.131 128.374 227.131Z" fill="white"/>
<path d="M164.769 183.042V174.103C164.769 173.045 165.626 172.187 166.685 172.187H194.778C195.836 172.187 196.694 173.045 196.694 174.103V183.042C196.694 184.1 195.837 184.958 194.778 184.958H166.685C165.627 184.957 164.769 184.1 164.769 183.042Z" fill="white"/>
<path d="M164.608 184.957C172.529 184.957 178.973 191.402 178.973 199.323C178.973 207.244 172.529 213.688 164.608 213.688C156.687 213.688 150.242 207.244 150.242 199.323C150.242 191.402 156.686 184.957 164.608 184.957ZM164.608 172.187C149.621 172.187 137.472 184.337 137.472 199.323C137.472 214.31 149.621 226.46 164.608 226.46C179.595 226.46 191.744 214.31 191.744 199.323C191.744 184.337 179.595 172.187 164.608 172.187Z" fill="white"/>
<path d="M164.608 241.787C171.094 241.787 176.466 246.647 177.273 252.917C177.395 253.86 178.214 254.557 179.165 254.557H188.156C189.259 254.557 190.155 253.625 190.069 252.525C189.034 239.37 178.03 229.017 164.609 229.017C151.188 229.017 140.184 239.37 139.148 252.525C139.062 253.626 139.958 254.557 141.061 254.557H150.052C151.003 254.557 151.823 253.86 151.944 252.917C152.751 246.647 158.123 241.787 164.608 241.787Z" fill="white"/>
</g>
<path d="M413.945 454.292C413.945 456.603 415.836 458.494 418.147 458.494H442.586C444.897 458.494 446.788 456.602 446.788 454.292V440.974C446.788 438.663 448.577 436.159 450.765 435.41L457.029 432.844C459.108 431.831 462.15 432.336 463.79 433.965L473.308 443.41C474.948 445.036 477.632 445.036 479.273 443.41L496.531 426.281C498.173 424.652 498.173 421.988 496.531 420.36L487.016 410.916C485.373 409.288 484.87 406.26 485.895 404.187L488.463 398.013C489.221 395.83 491.733 394.043 494.043 394.043H507.53C509.843 394.043 511.733 392.153 511.733 389.842V365.653C511.733 363.342 509.842 361.45 507.53 361.45H494.043C491.732 361.45 489.221 359.664 488.463 357.48L485.895 351.306C484.871 349.234 485.373 346.206 487.016 344.579L496.531 335.135C498.173 333.507 498.173 330.843 496.531 329.214L479.273 312.087C477.632 310.458 474.948 310.458 473.308 312.087L463.79 321.53C462.149 323.157 459.106 323.663 457.028 322.651L450.765 320.085C448.577 319.337 446.788 316.833 446.788 314.522V301.203C446.788 298.891 444.896 297 442.586 297H418.147C415.835 297 413.945 298.892 413.945 301.203V314.522C413.945 316.833 412.156 319.336 409.968 320.085L403.707 322.651C401.631 323.663 398.586 323.159 396.945 321.53L387.428 312.087C385.786 310.458 383.102 310.458 381.461 312.087L364.199 329.214C362.559 330.843 362.559 333.505 364.199 335.135L373.717 344.579C375.359 346.206 375.862 349.233 374.838 351.306L372.27 357.48C371.51 359.664 369 361.45 366.689 361.45H353.203C350.89 361.45 349 363.342 349 365.653V389.842C349 392.154 350.891 394.043 353.203 394.043H366.689C369.001 394.043 371.51 395.83 372.27 398.013L374.839 404.189C375.863 406.259 375.361 409.288 373.72 410.916L364.199 420.36C362.559 421.988 362.559 424.652 364.199 426.281L381.461 443.41C383.102 445.036 385.786 445.036 387.428 443.408L396.943 433.965C398.584 432.336 401.627 431.831 403.705 432.843L409.968 435.41C412.156 436.158 413.945 438.662 413.945 440.974V454.292Z" fill="#E99A00"/>
<circle cx="430" cy="378" r="31" fill="white"/>
<defs>
<filter id="filter0_d" x="112.519" y="152.899" width="89.1747" height="107.659" filterUnits="userSpaceOnUse" color-interpolation-filters="sRGB">
<feFlood flood-opacity="0" result="BackgroundImageFix"/>
<feColorMatrix in="SourceAlpha" type="matrix" values="0 0 0 0 0 0 0 0 0 0 0 0 0 0 0 0 0 0 127 0"/>
<feOffset dy="1"/>
<feGaussianBlur stdDeviation="2.5"/>
<feColorMatrix type="matrix" values="0 0 0 0 0 0 0 0 0 0 0 0 0 0 0 0 0 0 0.2 0"/>
<feBlend mode="normal" in2="BackgroundImageFix" result="effect1_dropShadow"/>
<feBlend mode="normal" in="SourceGraphic" in2="effect1_dropShadow" result="shape"/>
</filter>
<linearGradient id="paint0_linear" x1="72.839" y1="128.286" x2="243.337" y2="298.784" gradientUnits="userSpaceOnUse">
<stop stop-color="#002C63"/>
<stop offset="0.576389" stop-color="#0087C4"/>
<stop offset="0.899305" stop-color="#00BBC7"/>
</linearGradient>
<linearGradient id="paint1_linear" x1="65" y1="113" x2="250" y2="298" gradientUnits="userSpaceOnUse">
<stop stop-color="#1B1F54"/>
<stop offset="1" stop-color="#18B8B8"/>
</linearGradient>
</defs>
</svg>
