<svg xmlns="http://www.w3.org/2000/svg" width="320" height="446" viewBox="0 0 320 446" role="img" aria-label="Classic plan">
<title>ImageGlass Classic</title>
<rect x="0" y="0" width="320" height="446" rx="14" fill="#0d1117"/>
<g font-family="-apple-system, BlinkMacSystemFont, 'Segoe UI', Roboto, Helvetica, Arial, sans-serif">
<rect x="12" y="12" width="40" height="40" rx="12" fill="#121d2f"/>
<g transform="translate(-12,-20)"><path d="M44 62.5c-1.1 0-11.8-7.6-11.8-14.6a6.6 6.6 0 0 1 11.8-4 6.6 6.6 0 0 1 11.8 4c0 7-10.7 14.6-11.8 14.6z" fill="#4493f8"/></g>
<text x="60" y="38" font-size="22" font-weight="700" fill="#f0f6fc">Classic</text>
<text x="12" y="76" font-size="14.5" fill="#9198a1">Everyday users and hobbyists who</text>
<text x="12" y="96" font-size="14.5" fill="#9198a1">need a simple, and fast image viewer.</text>
<text x="12" y="166" font-size="36" font-weight="700" fill="#4493f8">$0</text>
<text x="61" y="166" font-size="14.5" fill="#9198a1">free forever</text>
<line x1="12" y1="234" x2="308" y2="234" stroke="#3d444d"/>
<text x="12" y="258" font-size="14.5" fill="#9198a1">Users</text>
<text x="96" y="258" font-size="14.5" font-weight="600" fill="#f0f6fc">Unlimited</text>
<text x="12" y="286" font-size="14.5" fill="#9198a1">Payment</text>
<text x="96" y="286" font-size="14.5" font-weight="600" fill="#f0f6fc">None</text>
<text x="12" y="314" font-size="14.5" fill="#9198a1">License</text>
<text x="96" y="314" font-size="14.5" font-weight="600" fill="#f0f6fc">GPLv3</text>
<text x="12" y="342" font-size="14.5" fill="#9198a1">Updates</text>
<text x="96" y="342" font-size="14.5" font-weight="600" fill="#f0f6fc">All versions</text>
<text x="12" y="370" font-size="14.5" fill="#9198a1">Support</text>
<text x="96" y="370" font-size="14.5" font-weight="600" fill="#f0f6fc">Community channels</text>
<rect x="12.5" y="390.5" width="295" height="43" rx="10" fill="#0d1117" stroke="#3d444d"/>
<text x="160" y="418" font-size="15.5" font-weight="600" fill="#f0f6fc" text-anchor="middle">Get Classic</text>
</g>
</svg>
