<svg xmlns="http://www.w3.org/2000/svg" width="308" height="434" viewBox="0 0 308 434" role="img" aria-label="Pro Individual plan">
<title>ImageGlass Pro Individual</title>
<rect x="0" y="0" width="308" height="434" rx="14" fill="#ffffff"/>
<g font-family="-apple-system, BlinkMacSystemFont, 'Segoe UI', Roboto, Helvetica, Arial, sans-serif">
<rect x="6" y="6" width="40" height="40" rx="12" fill="#e4f1fb"/>
<g transform="translate(-18,-26)"><circle cx="44" cy="45.5" r="6.2" fill="#0a84d8"/><path d="M33.5 62c0-5.8 4.7-10.5 10.5-10.5S54.5 56.2 54.5 62z" fill="#0a84d8"/></g>
<text x="54" y="32" font-size="22" font-weight="700" fill="#1f2328">Pro Individual</text>
<rect x="221" y="14" width="58" height="21" rx="10.5" fill="#0a84d8"/>
<text x="250" y="28.5" font-size="11.5" font-weight="600" fill="#ffffff" text-anchor="middle">Popular</text>
<text x="6" y="70" font-size="14.5" fill="#59636e">Power users who want advanced</text>
<text x="6" y="90" font-size="14.5" fill="#59636e">workflow tools and an official Pro</text>
<text x="6" y="110" font-size="14.5" fill="#59636e">license for personal use.</text>
<text x="6" y="160" font-size="36" font-weight="700" fill="#0a84d8">$14.90</text>
<text x="137" y="160" font-size="14.5" fill="#59636e">one-time</text>
<rect x="6" y="174" width="296" height="32" rx="9" fill="#f6f8fa" stroke="#d1d9e0"/>
<text x="154" y="195" font-size="13" fill="#59636e" text-anchor="middle">Also available on the Microsoft Store</text>
<line x1="6" y1="228" x2="302" y2="228" stroke="#d1d9e0"/>
<text x="6" y="252" font-size="14.5" fill="#59636e">Users</text>
<text x="90" y="252" font-size="14.5" font-weight="600" fill="#1f2328">1 user or device</text>
<text x="6" y="280" font-size="14.5" fill="#59636e">Payment</text>
<text x="90" y="280" font-size="14.5" font-weight="600" fill="#1f2328">One-time</text>
<text x="6" y="308" font-size="14.5" fill="#59636e">License</text>
<text x="90" y="308" font-size="14.5" font-weight="600" fill="#1f2328">Pro</text>
<text x="6" y="336" font-size="14.5" fill="#59636e">Updates</text>
<text x="90" y="336" font-size="14.5" font-weight="600" fill="#1f2328">Pro v10.x</text>
<text x="6" y="364" font-size="14.5" fill="#59636e">Support</text>
<text x="90" y="364" font-size="14.5" font-weight="600" fill="#1f2328">Standard purchase help</text>
<rect x="6" y="384" width="296" height="44" rx="10" fill="#0a84d8"/>
<text x="154" y="412" font-size="15.5" font-weight="600" fill="#ffffff" text-anchor="middle">Get Pro Individual</text>
</g>
</svg>
