<svg xmlns="http://www.w3.org/2000/svg" width="320" height="446" viewBox="0 0 320 446" role="img" aria-label="Pro Individual plan">
<title>ImageGlass Pro Individual</title>
<rect x="0" y="0" width="320" height="446" rx="14" fill="#0d1117"/>
<g font-family="-apple-system, BlinkMacSystemFont, 'Segoe UI', Roboto, Helvetica, Arial, sans-serif">
<rect x="12" y="12" width="40" height="40" rx="12" fill="#121d2f"/>
<g transform="translate(-12,-20)"><circle cx="44" cy="45.5" r="6.2" fill="#4493f8"/><path d="M33.5 62c0-5.8 4.7-10.5 10.5-10.5S54.5 56.2 54.5 62z" fill="#4493f8"/></g>
<text x="60" y="38" font-size="22" font-weight="700" fill="#f0f6fc">Pro Individual</text>
<rect x="227" y="20" width="58" height="21" rx="10.5" fill="#1f6feb"/>
<text x="256" y="34.5" font-size="11.5" font-weight="600" fill="#ffffff" text-anchor="middle">Popular</text>
<text x="12" y="76" font-size="14.5" fill="#9198a1">Power users who want advanced</text>
<text x="12" y="96" font-size="14.5" fill="#9198a1">workflow tools and an official Pro</text>
<text x="12" y="116" font-size="14.5" fill="#9198a1">license for personal use.</text>
<text x="12" y="166" font-size="36" font-weight="700" fill="#4493f8">$14.90</text>
<text x="143" y="166" font-size="14.5" fill="#9198a1">one-time</text>
<rect x="12" y="180" width="296" height="32" rx="9" fill="#151b23" stroke="#3d444d"/>
<text x="160" y="201" font-size="13" fill="#9198a1" text-anchor="middle">Also available on the Microsoft Store</text>
<line x1="12" y1="234" x2="308" y2="234" stroke="#3d444d"/>
<text x="12" y="258" font-size="14.5" fill="#9198a1">Users</text>
<text x="96" y="258" font-size="14.5" font-weight="600" fill="#f0f6fc">1 user or device</text>
<text x="12" y="286" font-size="14.5" fill="#9198a1">Payment</text>
<text x="96" y="286" font-size="14.5" font-weight="600" fill="#f0f6fc">One-time</text>
<text x="12" y="314" font-size="14.5" fill="#9198a1">License</text>
<text x="96" y="314" font-size="14.5" font-weight="600" fill="#f0f6fc">Pro</text>
<text x="12" y="342" font-size="14.5" fill="#9198a1">Updates</text>
<text x="96" y="342" font-size="14.5" font-weight="600" fill="#f0f6fc">Pro v10.x</text>
<text x="12" y="370" font-size="14.5" fill="#9198a1">Support</text>
<text x="96" y="370" font-size="14.5" font-weight="600" fill="#f0f6fc">Standard purchase help</text>
<rect x="12" y="390" width="296" height="44" rx="10" fill="#1f6feb"/>
<text x="160" y="418" font-size="15.5" font-weight="600" fill="#ffffff" text-anchor="middle">Get Pro Individual</text>
</g>
</svg>
