<svg xmlns="http://www.w3.org/2000/svg" width="20" height="20" fill="none"><g clip-path="url(#a)"><rect width="18" height="18" x="1" y="1" stroke="#ddd" stroke-linejoin="round" rx="2"/><rect width="13" height="13" x="3.5" y="3.5" fill="#fff" fill-opacity=".1" rx="1.5"/><path stroke="#fff" stroke-linecap="round" stroke-linejoin="round" stroke-opacity=".75" stroke-width=".5" d="m5.5 13.5 2.417-3.973a1 1 0 0 1 1.745.063l1.492 2.91m.77 1.5-.77-1.5m0 0 .825-1.536a1 1 0 0 1 1.66-.154L15 12.5"/><circle cx="13" cy="8" r="1" fill="#fff" fill-opacity=".2"/><circle cx="13" cy="8" r=".825" stroke="#fff" stroke-opacity=".75" stroke-width=".35"/><path stroke="#ddd" stroke-linecap="round" stroke-linejoin="round" d="M7 4H5a1 1 0 0 0-1 1v2M4 13v2a1 1 0 0 0 1 1h2M13 16h2a1 1 0 0 0 1-1v-2M13 4h2a1 1 0 0 1 1 1v2"/></g><defs><clipPath id="a"><path fill="#fff" d="M0 0h20v20H0z"/></clipPath></defs></svg>