<svg width="20" height="20" xmlns="http://www.w3.org/2000/svg">
 <!-- ImageGlass icons https://imageglass.org -->
 <g>
  <path id="svg_2" fill="none" stroke-width="0.7" d="m1.39047,19.49038c-0.59637,-0.23619 -1.02383,-0.95815 -0.92668,-1.627c0.09714,-0.66885 1.35361,-2.85492 1.46647,-2.7814c0.03684,0.024 0.36464,0.59547 0.72845,1.26992c0.58279,1.08042 0.66148,1.28189 0.66148,1.69359c0,0.83451 -0.63365,1.51806 -1.39448,1.50431c-0.22201,-0.00402 -0.46287,-0.03075 -0.53524,-0.05941l0,-0.00001z" stroke="#ffffff"/>
  <g id="svg_3">
   <path id="svg_4" fill="none" stroke-width="0.7" d="m9.63705,11.90303c-0.37174,0.31703 -0.71211,0.27405 -1.76876,0.49042c-0.90413,0.19428 -2.08524,0.64297 -3.719,1.8629l-1.05003,-1.29491c1.52885,-1.34346 2.21368,-2.41032 2.59109,-3.25287c0.43182,-0.98775 0.46006,-1.32959 0.84679,-1.62815l8.28913,-6.7174l3.0994,3.8266l-8.28862,6.71341z" stroke="#ffffff"/>
   <path id="svg_5" fill="none" stroke-width="0.7" d="m14.82349,1.33226c3.31106,-2.55713 6.82136,0.90359 3.21555,3.79486l-3.21555,-3.79486z" stroke="#ffffff"/>
  </g>
 </g>
</svg>