<svg xmlns="http://www.w3.org/2000/svg" width="20" height="20" fill="none"><g stroke="#ddd" stroke-linejoin="round"><path stroke-linecap="round" d="M9 6H3a2 2 0 0 0-2 2v9a2 2 0 0 0 2 2h13a2 2 0 0 0 2-2V9.5"/><path d="m18.202 2.182-1.383-.969a1 1 0 0 0-1.393.246L8.343 11.574a1 1 0 0 0-.161.379l-.495 2.485a.5.5 0 0 0 .674.563l2.604-1.029a1 1 0 0 0 .451-.356l7.032-10.042a1 1 0 0 0-.246-1.392Z"/><path fill="#fff" fill-opacity=".15" d="m17.597 4.789-3.021-2.116-6.496 9.278a1 1 0 0 0-.172.439l-.295 2.17a.5.5 0 0 0 .644.545l2.378-.739a1 1 0 0 0 .523-.38l6.44-9.197Z"/></g></svg>