<svg xmlns="http://www.w3.org/2000/svg" width="20" height="20" fill="none"><path fill="#fff" fill-opacity=".1" d="M1 13a2 2 0 0 1 2-2h10a6 6 0 0 1 6 6 2 2 0 0 1-2 2H3a2 2 0 0 1-2-2v-4Z"/><path fill="#ddd" fill-rule="evenodd" d="M15.094 3.5a1.99 1.99 0 0 0-.308-1.066C13.371 3.451 12.28 4.461 10.9 6.3 9.49 8.18 9 10.059 9 13.5a.5.5 0 1 1-1 0c0-3.559.51-5.68 2.1-7.8 1.392-1.856 2.525-2.926 3.942-3.961a1.991 1.991 0 0 0-.948-.239h-2.936a.5.5 0 0 1 0-1h5.436a.5.5 0 0 1 .5.5v5.427a.5.5 0 1 1-1 0V3.5ZM2 12.5a.5.5 0 0 0-1 0v4.369a2.5 2.5 0 0 0 2.5 2.5h13.173a2.5 2.5 0 0 0 2.5-2.5v-1.067a.5.5 0 1 0-1 0v1.067a1.5 1.5 0 0 1-1.5 1.5H3.5a1.5 1.5 0 0 1-1.5-1.5V12.5Z" clip-rule="evenodd"/></svg>