<svg xmlns="http://www.w3.org/2000/svg" width="20" height="20" fill="none"><g><rect width="18" height="18" x="1" y="1" stroke="#ddd" stroke-linecap="round" stroke-linejoin="round" rx="2"/><rect width="7" height="7" x="3.5" y="9.5" stroke="#ddd" stroke-linejoin="round" rx="1.5"/><path fill="#ddd" fill-rule="evenodd" d="M11.918 3.721a.5.5 0 0 1 .5-.5h4.029a.498.498 0 0 1 .5.5v4.035a.5.5 0 0 1-1 0V6.221a1.99 1.99 0 0 0-.267-.998l-3.59 3.592a.5.5 0 1 1-.708-.708l3.599-3.598a1.991 1.991 0 0 0-1.034-.288h-1.529a.5.5 0 0 1-.5-.5Z" clip-rule="evenodd"/></g></svg>