<svg xmlns="http://www.w3.org/2000/svg" width="20" height="20" fill="none"><g><rect width="4" height="4" x="14.5" y="15" stroke="#ddd" stroke-linejoin="round" rx=".75"/><rect width="4" height="4" x="8" y="15" stroke="#ddd" stroke-linejoin="round" rx="1"/><rect width="4" height="4" x="1.5" y="15" stroke="#ddd" stroke-linejoin="round" rx=".75"/><rect width="18" height="11.5" x="1" y="1" stroke="#ddd" stroke-linejoin="round" rx="1.5"/><rect width="18" height="11.5" x="1" y="1" fill="#fff" fill-opacity=".1" rx="1.5"/><path stroke="#ddd" stroke-linecap="round" stroke-linejoin="round" stroke-opacity=".75" stroke-width=".5" d="m4 9.583 3.043-3.6a1 1 0 0 1 1.579.065l1.925 2.702m.89 1.25-.89-1.25m0 0 1.128-1.511a1 1 0 0 1 1.467-.148L15 8.75"/><circle cx="15" cy="5" r="1" fill="#fff" fill-opacity=".2"/><circle cx="15" cy="5" r=".825" stroke="#ddd" stroke-opacity=".75" stroke-width=".35"/></g></svg>