<svg xmlns="http://www.w3.org/2000/svg" width="20" height="20" fill="none"><g><rect width="18" height="18" x="1" y="1" stroke="#ddd" stroke-linejoin="round" rx="2"/><rect width="13" height="13" x="3.5" y="3.5" fill="#fff" fill-opacity=".1" rx="1.5"/><path stroke="#ddd" stroke-linecap="round" stroke-linejoin="round" d="M7 4H5a1 1 0 0 0-1 1v2"/><path fill="#ddd" fill-rule="evenodd" d="M11.473 8.647c-.275.425-.484 1.038-.563 1.853h3.68c-.079-.815-.288-1.428-.563-1.853-.349-.536-.8-.772-1.277-.772-.477 0-.928.236-1.277.772Zm-.629-.408c-.366.564-.605 1.324-.687 2.261H10a1 1 0 0 0-1 1v4a1 1 0 0 0 1 1h5.5a1 1 0 0 0 1-1v-4a1 1 0 0 0-1-1h-.157c-.082-.937-.321-1.697-.688-2.261-.466-.718-1.14-1.114-1.905-1.114-.766 0-1.44.396-1.905 1.114Zm1.906 6.011c.414 0 .75-.504.75-1.125S13.164 12 12.75 12s-.75.504-.75 1.125.336 1.125.75 1.125Z" clip-rule="evenodd"/></g></svg>