<svg width="200" height="200" viewBox="0 0 200 200" fill="none" xmlns="http://www.w3.org/2000/svg">
<g clip-path="url(#clip0_103_2)">
<path d="M160.938 1.17188H39.0625C18.1361 1.17188 1.17188 18.1361 1.17188 39.0625V160.938C1.17188 181.864 18.1361 198.828 39.0625 198.828H160.938C181.864 198.828 198.828 181.864 198.828 160.938V39.0625C198.828 18.1361 181.864 1.17188 160.938 1.17188Z" fill="url(#paint0_linear_103_2)" stroke="url(#paint1_linear_103_2)" stroke-width="3"/>
<g filter="url(#filter0_d_103_2)">
<path d="M63.683 47.4579C59.8705 47.4579 56.7802 50.5486 56.7802 54.3605C56.7802 58.1726 59.8709 61.2633 63.683 61.2633C67.4949 61.2633 70.5856 58.1726 70.5856 54.3605C70.5856 50.5486 67.4958 47.4579 63.683 47.4579Z" fill="white"/>
<path d="M68.512 123.385H58.8489C57.7052 123.385 56.7777 122.458 56.7777 121.313V66.7836C56.7777 65.6399 57.7047 64.7125 58.8489 64.7125H68.5129C69.6566 64.7125 70.584 65.6394 70.584 66.7836V121.314C70.5831 122.458 69.6562 123.385 68.512 123.385Z" fill="white"/>
<path d="M107.859 75.7213V66.0573C107.859 64.9136 108.785 63.9862 109.93 63.9862H140.301C141.445 63.9862 142.372 64.9132 142.372 66.0573V75.7213C142.372 76.8651 141.445 77.7924 140.301 77.7924H109.93C108.786 77.7916 107.859 76.8646 107.859 75.7213Z" fill="white"/>
<path d="M107.684 77.7912C116.248 77.7912 123.214 84.7586 123.214 93.3219C123.214 101.885 116.247 108.852 107.684 108.852C99.1203 108.852 92.1531 101.885 92.1531 93.3219C92.1531 84.7586 99.1203 77.7912 107.684 77.7912ZM107.684 63.9862C91.482 63.9862 78.3477 77.1205 78.3477 93.3227C78.3477 109.524 91.482 122.659 107.684 122.659C123.886 122.659 137.02 109.524 137.02 93.3227C137.02 77.1205 123.887 63.9862 107.684 63.9862Z" fill="white"/>
<path d="M107.684 139.229C114.696 139.229 120.504 144.484 121.377 151.262C121.508 152.281 122.394 153.035 123.422 153.035H133.141C134.334 153.035 135.303 152.027 135.209 150.838C134.091 136.616 122.195 125.424 107.685 125.424C93.1758 125.424 81.2805 136.616 80.1602 150.838C80.0672 152.027 81.0352 153.035 82.2289 153.035H91.9477C92.9766 153.035 93.8625 152.281 93.9937 151.262C94.8664 144.484 100.673 139.229 107.684 139.229Z" fill="white"/>
</g>
</g>
<defs>
<filter id="filter0_d_103_2" x="51.7777" y="43.4579" width="95.5941" height="115.577" filterUnits="userSpaceOnUse" color-interpolation-filters="sRGB">
<feFlood flood-opacity="0" result="BackgroundImageFix"/>
<feColorMatrix in="SourceAlpha" type="matrix" values="0 0 0 0 0 0 0 0 0 0 0 0 0 0 0 0 0 0 127 0" result="hardAlpha"/>
<feOffset dy="1"/>
<feGaussianBlur stdDeviation="2.5"/>
<feColorMatrix type="matrix" values="0 0 0 0 0 0 0 0 0 0 0 0 0 0 0 0 0 0 0.4 0"/>
<feBlend mode="normal" in2="BackgroundImageFix" result="effect1_dropShadow_103_2"/>
<feBlend mode="normal" in="SourceGraphic" in2="effect1_dropShadow_103_2" result="shape"/>
</filter>
<linearGradient id="paint0_linear_103_2" x1="8.47453" y1="16.5254" x2="192.797" y2="200.848" gradientUnits="userSpaceOnUse">
<stop stop-color="#793CB5"/>
<stop offset="0.319652" stop-color="#3558B0"/>
<stop offset="0.559235" stop-color="#28579D"/>
<stop offset="0.899305" stop-color="#00428E"/>
</linearGradient>
<linearGradient id="paint1_linear_103_2" x1="0" y1="0" x2="200" y2="200" gradientUnits="userSpaceOnUse">
<stop stop-color="#743EB2"/>
<stop offset="1" stop-color="#1B5B65"/>
</linearGradient>
<clipPath id="clip0_103_2">
<rect width="200" height="200" fill="white"/>
</clipPath>
</defs>
</svg>
