<svg xmlns="http://www.w3.org/2000/svg" width="20" height="20" fill="none"><g><path fill="#ddd" fill-rule="evenodd" d="M17.46 4.448a1.99 1.99 0 0 1-1.086.32H14.45a.5.5 0 0 0 0 1h4.424a.5.5 0 0 0 .5-.5V.835a.5.5 0 0 0-1 0v1.931c0 .338-.083.656-.231.936a9.588 9.588 0 0 0-3.319-2.569 9.857 9.857 0 0 0-4.898-.9A10.156 10.156 0 0 0 5.159 1.83a10.182 10.182 0 0 0-3.426 3.684 9.91 9.91 0 0 0-1.213 4.84 9.604 9.604 0 0 0 1.315 4.763.5.5 0 0 0 .862-.506 8.605 8.605 0 0 1-1.177-4.268 8.91 8.91 0 0 1 1.091-4.35 9.182 9.182 0 0 1 3.09-3.323 9.156 9.156 0 0 1 4.297-1.44 8.858 8.858 0 0 1 4.402.81 8.584 8.584 0 0 1 3.06 2.408Z" clip-rule="evenodd"/><circle cx="2" cy="2" r="1.5" fill="#fff" fill-opacity=".1" stroke="#ddd" transform="matrix(-1 0 0 1 12.393 8)"/><path stroke="#ddd" stroke-dasharray="2 2" stroke-linecap="round" stroke-linejoin="round" d="M2.266 14.864a9.053 9.053 0 0 0 3.328 3.284 9.303 9.303 0 0 0 4.56 1.216"/></g></svg>