<svg width="20" height="20" viewBox="0 0 20 20" fill="none" xmlns="http://www.w3.org/2000/svg">
<g clip-path="url(#clip0_806_844)">
<rect x="1" y="1" width="18" height="18" rx="2" stroke="black" stroke-linejoin="round"/>
<rect x="3.5" y="3.5" width="13" height="13" rx="1.5" fill="black" fill-opacity="0.1"/>
<path d="M5.5 13.5L7.91741 9.52656C8.32373 8.8587 9.30481 8.89439 9.66154 9.59L11.1538 12.5M11.9231 14L11.1538 12.5M11.1538 12.5L11.9788 10.9645C12.3174 10.3341 13.1893 10.2531 13.6383 10.8103L15 12.5" stroke="black" stroke-opacity="0.75" stroke-width="0.5" stroke-linecap="round" stroke-linejoin="round"/>
<circle cx="13" cy="8" r="1" fill="black" fill-opacity="0.2"/>
<circle cx="13" cy="8" r="0.825" stroke="black" stroke-opacity="0.75" stroke-width="0.35"/>
<path d="M7 4H5C4.44772 4 4 4.44772 4 5V7" stroke="black" stroke-linecap="round" stroke-linejoin="round"/>
<path d="M4 13L4 15C4 15.5523 4.44772 16 5 16L7 16" stroke="black" stroke-linecap="round" stroke-linejoin="round"/>
<path d="M13 16L15 16C15.5523 16 16 15.5523 16 15L16 13" stroke="black" stroke-linecap="round" stroke-linejoin="round"/>
<path d="M13 4H15C15.5523 4 16 4.44772 16 5V7" stroke="black" stroke-linecap="round" stroke-linejoin="round"/>
</g>
<defs>
<clipPath id="clip0_806_844">
<rect width="20" height="20" fill="white"/>
</clipPath>
</defs>
</svg>
