<svg width="20" height="20" viewBox="0 0 20 20" fill="none" xmlns="http://www.w3.org/2000/svg">
<path d="M10 3L9.64645 2.64645L10 2.29289L10.3536 2.64645L10 3ZM10.5 12C10.5 12.2761 10.2761 12.5 10 12.5C9.72386 12.5 9.5 12.2761 9.5 12L10.5 12ZM4.64645 7.64645L9.64645 2.64645L10.3536 3.35355L5.35355 8.35355L4.64645 7.64645ZM10.3536 2.64645L15.3536 7.64645L14.6464 8.35355L9.64645 3.35355L10.3536 2.64645ZM10.5 3L10.5 12L9.5 12L9.5 3L10.5 3Z" fill="#222222"/>
<path d="M3 14L3 15C3 16.1046 3.89543 17 5 17L15 17C16.1046 17 17 16.1046 17 15V14" stroke="#000"/>
</svg>
