<svg width="20" height="20" xmlns="http://www.w3.org/2000/svg">
 <!-- ImageGlass icons http://www.imageglass.org -->

 <g>
  <title>background</title>
  <rect x="-1" y="-1" width="22" height="22" id="canvas_background" fill="none"/>
  <g id="canvasGrid" width="100%" height="100%" x="0" y="0" overflow="visible" display="none">
   <rect id="svg_2" width="100%" height="100%" x="0" y="0" stroke-width="0" fill="url(#gridpattern)"/>
  </g>
 </g>
 <g>
  <title>Layer 1</title>
  <g stroke="null" id="svg_3">
   <rect stroke="#000" fill="none" stroke-width="0.7" x="0.31964" y="0" width="19.36073" height="12.96468" id="svg_1"/>
   <ellipse stroke="#000" fill="none" stroke-width="0.7" stroke-opacity="null" cx="15.02283" cy="3.44576" id="svg_13" rx="1.6895" ry="1.2724"/>
   <path stroke="#000" fill="none" stroke-width="0.7" stroke-opacity="null" fill-opacity="null" d="m2.82688,10.97697c-0.47796,-0.82758 1.17318,-6.88663 3.95406,-6.5024c2.69397,0.35467 4.17131,5.02458 4.671,4.99502c1.0211,-0.59112 1.32526,-1.41871 2.99813,-1.47782c1.58597,0.05911 2.7157,2.48274 2.65052,2.74874" id="svg_19"/>
  </g>
  <rect id="svg_7" height="3.99993" width="3.99993" y="15.65007" x="0.35" fill-opacity="null" stroke-opacity="null" stroke-width="0.7" stroke="#000" fill="none"/>
  <rect id="svg_8" height="3.99993" width="3.99993" y="15.65007" x="8.00003" fill-opacity="null" stroke-opacity="null" stroke-width="0.7" stroke="#000" fill="none"/>
  <rect id="svg_9" height="3.99993" width="3.99993" y="15.65007" x="15.65007" fill-opacity="null" stroke-opacity="null" stroke-width="0.7" stroke="#000" fill="none"/>
 </g>
</svg>