<svg width="20" height="20" viewBox="0 0 20 20" fill="none" xmlns="http://www.w3.org/2000/svg">
<path fill-rule="evenodd" clip-rule="evenodd" d="M9.03751 18.0343C8.84225 18.2295 8.52567 18.2295 8.33041 18.0343L0.646437 10.3503C0.570893 10.2748 0.524575 10.1811 0.507485 10.0832C0.480307 9.92817 0.52661 9.76273 0.646394 9.64295L8.3429 1.94644C8.53816 1.75118 8.85474 1.75118 9.05 1.94644C9.24527 2.14171 9.24527 2.45829 9.05 2.65355L3.12116 8.58239C2.87332 8.83023 2.70413 9.12694 2.61357 9.44149L19.0278 9.44149C19.304 9.44149 19.5278 9.66535 19.5278 9.94149C19.5278 10.2176 19.304 10.4415 19.0278 10.4415L2.58522 10.4415C2.6659 10.7967 2.84455 11.1342 3.12116 11.4108L9.03751 17.3272C9.23278 17.5224 9.23278 17.839 9.03751 18.0343Z" fill="black"/>
</svg>
