<svg width="20" height="20" viewBox="0 0 20 20" fill="none" xmlns="http://www.w3.org/2000/svg">
<path fill-rule="evenodd" clip-rule="evenodd" d="M16.0125 1.5C16.0125 1.22386 15.7886 1 15.5125 1C15.2363 1 15.0125 1.22386 15.0125 1.5L15.0125 18.6983C15.0125 18.9745 15.2363 19.1983 15.5125 19.1983C15.7886 19.1983 16.0125 18.9745 16.0125 18.6983L16.0125 1.5ZM4.15893 1.94645C4.3542 1.75119 4.67078 1.75119 4.86604 1.94645L12.55 9.63042C12.6256 9.70596 12.6719 9.79967 12.689 9.89748C12.7161 10.0526 12.6698 10.218 12.5501 10.3378L4.85355 18.0343C4.65829 18.2295 4.34171 18.2295 4.14645 18.0343C3.95118 17.839 3.95118 17.5224 4.14645 17.3272L10.0753 11.3983C10.8563 10.6173 10.8563 9.35096 10.0753 8.56991L4.15893 2.65356C3.96367 2.45829 3.96367 2.14171 4.15893 1.94645Z" fill="black"/>
</svg>
