<svg width="20" height="20" xmlns="http://www.w3.org/2000/svg">
 <!-- ImageGlass icons http://www.imageglass.org -->
 <g>
  <title>background</title>
  <rect fill="none" id="canvas_background" height="22" width="22" y="-1" x="-1"/>
  <g display="none" overflow="visible" y="0" x="0" height="100%" width="100%" id="canvasGrid">
   <rect fill="url(#gridpattern)" stroke-width="0" y="0" x="0" height="100%" width="100%"/>
  </g>
 </g>
 <g>
  <title>Layer 1</title>
  <rect x="0" y="0" stroke-width="1.5" stroke="#000" id="svg_1" height="20" width="20" fill="none"/>
  <g id="svg_5"/>
  <g transform="rotate(-90 5.470890522003175,14.519892692565918) " id="svg_48">
   <line stroke="#000" transform="rotate(-270 5.472714900970458,14.585470199584961) " stroke-width="0.7" stroke-linecap="null" stroke-linejoin="null" id="svg_21" y2="14.585468" x2="8.410043" y1="14.585468" x1="2.535388" stroke-opacity="null" fill="none"/>
   <line stroke="#000" transform="rotate(-315 6.455248355865479,12.782735824584961) " stroke-width="0.7" stroke-linecap="null" stroke-linejoin="null" id="svg_22" y2="12.782733" x2="8.183542" y1="12.782733" x1="4.726957" stroke-opacity="null" fill="none"/>
   <line stroke="#000" transform="rotate(-225 4.490182399749755,12.742725372314455) " stroke-width="0.7" stroke-linecap="null" stroke-linejoin="null" id="svg_23" y2="12.742722" x2="6.223638" y1="12.742722" x1="2.756727" stroke-opacity="null" fill="none"/>
  </g>
  <g transform="rotate(90 14.56279182434082,14.528783798217775) " id="svg_52">
   <line stroke="#000" transform="rotate(-270 14.564615249633789,14.594361305236816) " stroke-width="0.7" stroke-linecap="null" stroke-linejoin="null" id="svg_49" y2="14.594358" x2="17.501943" y1="14.594358" x1="11.627288" stroke-opacity="null" fill="none"/>
   <line stroke="#000" transform="rotate(-315 15.547149658203129,12.791626930236815) " stroke-width="0.7" stroke-linecap="null" stroke-linejoin="null" id="svg_50" y2="12.791624" x2="17.275442" y1="12.791624" x1="13.818857" stroke-opacity="null" fill="none"/>
   <line stroke="#000" transform="rotate(-225 13.582084655761719,12.751616477966309) " stroke-width="0.7" stroke-linecap="null" stroke-linejoin="null" id="svg_51" y2="12.751613" x2="15.315538" y1="12.751613" x1="11.848628" stroke-opacity="null" fill="none"/>
  </g>
 </g>
</svg>