<svg width="20" height="20" xmlns="http://www.w3.org/2000/svg">
 <g>
  <title>background</title>
  <rect x="-1" y="-1" width="22" height="22" id="canvas_background" fill="none"/>
 </g>

 <g>
  <title>Layer 1</title>
  <g stroke="null" id="Settings_1">
   <path stroke-width="0.25" stroke="#fff" d="m10.002654,12.75447c-1.518724,0 -2.754802,-1.234751 -2.754802,-2.754802s1.236078,-2.754802 2.754802,-2.754802c1.517397,0 2.752148,1.234751 2.752148,2.754802s-1.234751,2.754802 -2.752148,2.754802zm0,-4.795691c-1.125939,0 -2.040889,0.916277 -2.040889,2.040889s0.91495,2.040889 2.040889,2.040889c1.123285,0 2.038235,-0.916277 2.038235,-2.040889s-0.91495,-2.040889 -2.038235,-2.040889z" fill="#fff" id="svg_109"/>
   <path stroke-width="0.25" stroke="#fff" d="m8.802404,19.948007c-0.163218,0 -0.305868,-0.111466 -0.345677,-0.269376l-0.61439,-2.456896c-0.478375,-0.147958 -0.950115,-0.348331 -1.405931,-0.595812l-2.184866,1.311716c-0.139996,0.084263 -0.319801,0.061041 -0.435248,-0.053079l-1.697866,-1.697866c-0.115447,-0.115447 -0.137342,-0.295252 -0.053079,-0.435248l1.311716,-2.182212c-0.2435,-0.451172 -0.439229,-0.921585 -0.584533,-1.404604l-2.470166,-0.618371c-0.15791,-0.039146 -0.270703,-0.182459 -0.270703,-0.345014l0,-2.398509c0,-0.164545 0.112793,-0.307195 0.270703,-0.345677l2.455569,-0.613063c0.150612,-0.483683 0.350985,-0.954759 0.597139,-1.408585l-1.311716,-2.184866c-0.084263,-0.141323 -0.062368,-0.321128 0.053079,-0.436575l1.695212,-1.695212c0.116774,-0.116774 0.296579,-0.139996 0.436575,-0.053079l2.184866,1.310389c0.449845,-0.240846 0.920258,-0.437902 1.403277,-0.583206l0.617044,-2.470166c0.040473,-0.159237 0.182459,-0.270703 0.345677,-0.270703l2.398509,0c0.163218,0 0.307195,0.111466 0.345677,0.270703l0.61439,2.458223c0.482356,0.150612 0.954096,0.349658 1.404604,0.593822l2.18752,-1.313043c0.137342,-0.080282 0.318474,-0.059714 0.435248,0.054406l1.695212,1.695212c0.116774,0.115447 0.138669,0.295252 0.054406,0.436575l-1.311716,2.18752c0.240846,0.448518 0.436575,0.918931 0.581879,1.399296l2.47282,0.619698c0.159237,0.039146 0.270703,0.182459 0.270703,0.345677l0,2.395855c0,0.163218 -0.111466,0.307195 -0.270703,0.345677l-2.47282,0.619698c-0.145304,0.484346 -0.341033,0.954759 -0.580552,1.400623l1.313043,2.186193c0.084263,0.141323 0.062368,0.321128 -0.054406,0.436575l-1.695212,1.697866c-0.116774,0.115447 -0.296579,0.134688 -0.435248,0.054406l-2.18752,-1.313043c-0.451172,0.246154 -0.922912,0.444537 -1.405931,0.595812l-0.611736,2.456896c-0.040473,0.15791 -0.182459,0.269376 -0.347004,0.269376l-2.397845,0.00199l0,0zm-2.372633,-4.092394c0.061041,0 0.123409,0.01526 0.179142,0.047771c0.523492,0.301887 1.071533,0.534108 1.627536,0.688037c0.123409,0.035165 0.217624,0.134688 0.250135,0.259424l0.595812,2.383249l1.839852,-0.001327l0.594485,-2.384576c0.031184,-0.123409 0.125399,-0.221605 0.248808,-0.25677c0.563965,-0.15791 1.110679,-0.390131 1.627536,-0.689364c0.112793,-0.066349 0.250135,-0.063695 0.361601,0.002654l2.125152,1.276551l1.302427,-1.305081l-1.276551,-2.122498c-0.067676,-0.111466 -0.067676,-0.250135 -0.003981,-0.362928c0.293925,-0.509559 0.519511,-1.052292 0.672777,-1.618247c0.033838,-0.124736 0.132034,-0.221605 0.258097,-0.252789l2.40249,-0.602447l0,-1.838525l-2.40249,-0.60112c-0.125399,-0.031184 -0.224259,-0.128053 -0.258097,-0.252789c-0.151939,-0.561311 -0.378188,-1.106698 -0.672777,-1.619574c-0.063695,-0.111466 -0.062368,-0.250135 0.003981,-0.361601l1.273897,-2.123825l-1.3011,-1.3011l-2.125152,1.275224c-0.110139,0.067676 -0.247481,0.069666 -0.361601,0.002654c-0.518184,-0.297906 -1.064898,-0.530127 -1.627536,-0.688037c-0.123409,-0.033838 -0.217624,-0.132034 -0.248808,-0.25677l-0.595812,-2.385903l-1.839852,0l-0.599793,2.399836c-0.031184,0.124736 -0.128053,0.224259 -0.252789,0.258097c-0.563965,0.152602 -1.109352,0.379515 -1.622228,0.674104c-0.111466,0.066349 -0.248808,0.065022 -0.361601,-0.003981l-2.122498,-1.273897l-1.3011,1.302427l1.273897,2.121171c0.067676,0.111466 0.067676,0.250135 0.002654,0.362928c-0.299233,0.520838 -0.532781,1.068879 -0.689364,1.63019c-0.035165,0.124736 -0.133361,0.218951 -0.258097,0.250135l-2.383249,0.594485l0,1.839852l2.399836,0.60112c0.125399,0.031184 0.224259,0.128053 0.258097,0.252789c0.152602,0.562638 0.378188,1.108025 0.675431,1.620901c0.065022,0.112793 0.063695,0.251462 -0.003981,0.362928l-1.273897,2.119844l1.302427,1.303754l2.122498,-1.275224c0.056396,-0.034501 0.120091,-0.051752 0.183786,-0.051752z" fill="#fff" id="svg_110"/>
  </g>
 </g>
</svg>