<?xml version="1.0" encoding="utf-8"?>
<!-- Generator: Adobe Illustrator 19.2.0, SVG Export Plug-In . SVG Version: 6.00 Build 0)  -->
<svg version="1.1" id="Layer_1" xmlns="http://www.w3.org/2000/svg" xmlns:xlink="http://www.w3.org/1999/xlink" x="0px" y="0px"
	 width="94px" height="66px" viewBox="0 0 94 66" style="enable-background:new 0 0 94 66;" xml:space="preserve">
<style type="text/css">
	.st0{fill:#FFFFFF;}
	.st1{fill:#B4B4B4;}
	.st2{fill:#595959;}
	.st3{fill:#3884C5;}
	.st4{fill:none;stroke:#FFFFFF;stroke-width:2;stroke-miterlimit:10;}
	.st5{fill:#4D8983;}
	.st6{fill:#808793;}
</style>
<g>
	<g>
		<path class="st0" d="M26,3.6c12.1,0,21.8,9.8,21.8,21.8c0,12.1-9.8,21.8-21.8,21.8C13.9,47.2,4.1,37.5,4.1,25.5
			C4.1,13.4,13.9,3.6,26,3.6z"/>
		<path class="st6" d="M26.1,29.9h-9c-1,0-1.8-0.8-1.8-1.8v-1c0-1,0.8-1.8,1.8-1.8h9c1,0,1.8,0.8,1.8,1.8v1
			C27.9,29,27.1,29.9,26.1,29.9z"/>
		<path class="st6" d="M23.4,28.1v-14c0-1,0.8-1.8,1.8-1.8h1c1,0,1.8,0.8,1.8,1.8v14c0,1-0.8,1.8-1.8,1.8h-1
			C24.2,29.9,23.4,29.1,23.4,28.1z"/>
		<g>
			<g>
				<g>
					<path class="st6" d="M26,1.8C12.9,1.8,2.4,12.4,2.4,25.5C2.4,38.5,13,49,26,49s23.6-10.6,23.6-23.6C49.7,12.4,39,1.8,26,1.8z
						 M26,44.5c-10.5,0-19-8.5-19-19s8.5-19,19-19s19,8.5,19,19S36.5,44.5,26,44.5z"/>
				</g>
			</g>
		</g>
	</g>
	<g>
		<g>
			<rect x="33.5" y="23.7" class="st0" width="16.1" height="31.3"/>
			<g>
				<path class="st6" d="M37.8,37.7h-6c-0.9,0-1.7,0.7-1.7,1.7c0,0.9,0.7,1.7,1.7,1.7h6c0.9,0,1.7-0.8,1.7-1.7S38.8,37.7,37.8,37.7z
					"/>
			</g>
			<g>
				<path class="st6" d="M37.8,49.5h-6c-0.9,0-1.7,0.7-1.7,1.7c0,0.9,0.7,1.7,1.7,1.7h6c0.9,0,1.7-0.8,1.7-1.7
					C39.5,50.4,38.8,49.5,37.8,49.5z"/>
			</g>
			<g>
				<path class="st6" d="M37.8,29c0.9,0,1.7-0.8,1.7-1.7c0-0.9-0.7-1.7-1.7-1.7h-6c-0.9,0-1.7,0.7-1.7,1.7c0,0.9,0.7,1.7,1.7,1.7
					H37.8z"/>
			</g>
			<g>
				<g>
					<path class="st6" d="M85.7,14.2H39.5c-3.3,0-5.9,2.6-5.9,5.9v3.5h4c2.2,0,3.9,1.6,3.9,3.7c0,2.2-1.8,3.6-3.9,3.6h-4v4.7h4
						c2.2,0,3.9,1.6,3.9,3.7c0,2.2-1.8,3.6-3.9,3.6h-4v4.6h4c2.2,0,3.9,1.6,3.9,3.7c0,2.2-1.8,3.6-3.9,3.6h-4v3.5
						c0,3.2,2.6,5.9,5.9,5.9h46.2c3.2,0,5.9-2.6,5.9-5.9V20.1C91.6,16.9,88.8,14.2,85.7,14.2z"/>
				</g>
			</g>
			<g>
				<g>
					<path class="st6" d="M45.7,14.2h-6.2c-3.3,0-5.9,2.6-5.9,5.9v3.5h4c2.2,0,3.9,1.6,3.9,3.7c0,2.2-1.8,3.6-3.9,3.6h-4v4.7h4
						c2.2,0,3.9,1.6,3.9,3.7c0,2.2-1.8,3.6-3.9,3.6h-4v4.6h4c2.2,0,3.9,1.6,3.9,3.7c0,2.2-1.8,3.6-3.9,3.6h-4v3.5
						c0,3.2,2.6,5.9,5.9,5.9h6.2V14.2z"/>
				</g>
			</g>
		</g>
	</g>
	<line class="st4" x1="45.7" y1="14.3" x2="45.7" y2="64.2"/>
</g>
</svg>
