<svg width="20" height="20" xmlns="http://www.w3.org/2000/svg">
 <!-- ImageGlass icons http://www.imageglass.org -->

 <g>
  <title>background</title>
  <rect fill="none" id="canvas_background" height="22" width="22" y="-1" x="-1"/>
  <g display="none" id="canvasGrid">
   <rect fill="url(#gridpattern)" stroke-width="0" y="0" x="0" height="100%" width="100%" id="svg_2"/>
  </g>
 </g>
 <g>
  <title>Layer 1</title>
  <path fill="none" stroke-width="0.7" stroke-opacity="null" fill-opacity="null" d="m19.64189,11.952607c0,-5.38342 -4.85365,-5.13556 -4.87894,-5.11754" id="svg_14" stroke="#000"/>
  <path fill="none" stroke-width="0.7" stroke-opacity="null" fill-opacity="null" d="m14.98263,7.223947c0,-5.48912 -6.47376,-5.2364 -6.50749,-5.21802" id="svg_15" stroke="#000"/>
  <path fill="none" stroke-width="0.7" stroke-opacity="null" fill-opacity="null" d="m9.71401,2.024077c-6.83615,0 -6.5214,5.01646 -6.49851,5.04259" id="svg_16" stroke="#000"/>
  <line fill="none" stroke-width="0.7" stroke-opacity="null" fill-opacity="null" x1="13.066539" y1="14.732631" x2="16.772953" y2="14.732631" id="svg_20" stroke-linejoin="null" stroke-linecap="null" stroke="#000"/>
  <line fill="none" stroke-width="0.7" stroke-opacity="null" fill-opacity="null" x1="4.88197" y1="14.047073" x2="6.394601" y2="14.047073" id="svg_25" stroke-linejoin="null" stroke-linecap="null" stroke="#000"/>
  <path fill="none" stroke-width="0.7" stroke-opacity="null" fill-opacity="null" d="m19.62093,11.481767c0,3.41149 -3.20748,3.25442 -3.22419,3.243" id="svg_30" stroke="#000"/>
  <path fill="none" stroke-width="0.7" stroke-opacity="null" fill-opacity="null" d="m4.37638,11.983757c0,-4.9563 -4.46855,-4.72811 -4.49183,-4.71151" id="svg_31" transform="rotate(-111.92151641845703 2.1304666996002193,9.625011444091797) " stroke="#000"/>
  <path fill="none" stroke-width="0.7" stroke-opacity="null" fill-opacity="null" d="m4.6456,14.869757c0,-3.83068 -3.45371,-3.65431 -3.4717,-3.64148" id="svg_32" transform="rotate(154.7248077392578 2.909747362136841,13.04670810699463) " stroke="#000"/>
  <g id="svg_1">
   <line stroke="#000" stroke-width="0.7" stroke-linecap="null" stroke-linejoin="null" id="svg_21" y2="18.553345" x2="10.002238" y1="8.894817" x1="10.002238" stroke-opacity="null" fill="none"/>
   <line stroke="#000" stroke-width="0.7" stroke-linecap="null" stroke-linejoin="null" id="svg_22" y2="11.331433" x2="12.800597" y1="8.330349" x1="9.799513" stroke-opacity="null" fill="none"/>
   <line stroke="#000" stroke-width="0.7" stroke-linecap="null" stroke-linejoin="null" id="svg_23" y2="11.332491" x2="7.290811" y1="8.322442" x1="10.30086" stroke-opacity="null" fill="none"/>
  </g>
 </g>
</svg>