<svg width="20" height="20" xmlns="http://www.w3.org/2000/svg">
 <!-- ImageGlass icons http://www.imageglass.org -->

 <g>
  <title>background</title>
  <rect x="-1" y="-1" width="2.873362" height="2.873362" id="canvas_background" fill="none"/>
  <g id="canvasGrid" display="none">
   <rect id="svg_2" width="100%" height="100%" x="0" y="0" stroke-width="0" fill="url(#gridpattern)"/>
  </g>
 </g>
 <g>
  <title>Layer 1</title>
  <rect x="0.35" y="11.670109" stroke="#fff" fill="none" width="7.979891" height="7.979891" id="svg_1" stroke-width="0.7"/>
  <g id="svg_5"/>
  <g transform="rotate(45 13.504838943481447,6.529325485229491) " id="svg_48">
   <line fill="none" stroke-opacity="null" x1="10.569336" y1="6.594904" x2="16.44399" y2="6.594904" id="svg_21" stroke-linejoin="null" stroke-linecap="null" stroke-width="0.7" transform="rotate(-270 13.50666332244873,6.59490442276001) " stroke="#fff"/>
   <line fill="none" stroke-opacity="null" x1="12.760905" y1="4.792169" x2="16.21749" y2="4.792169" id="svg_22" stroke-linejoin="null" stroke-linecap="null" stroke-width="0.7" transform="rotate(-315 14.48919677734375,4.792169570922852) " stroke="#fff"/>
   <line fill="none" stroke-opacity="null" x1="10.790675" y1="4.752158" x2="14.257586" y2="4.752158" id="svg_23" stroke-linejoin="null" stroke-linecap="null" stroke-width="0.7" transform="rotate(-225 12.52413082122803,4.7521586418151855) " stroke="#fff"/>
  </g>
  <line stroke="#fff" stroke-linecap="null" stroke-linejoin="null" id="svg_9" y2="0.35" x2="19.991546" y1="0.35" x1="0.030072" fill-opacity="null" stroke-opacity="null" stroke-width="0.7" fill="none"/>
  <line transform="rotate(-90 19.678404808044434,10.290233612060547)" stroke="#fff" stroke-linecap="null" stroke-linejoin="null" id="svg_10" y2="10.290234" x2="29.659141" y1="10.290234" x1="9.697667" fill-opacity="null" stroke-opacity="null" stroke-width="0.7" fill="none"/>
  <line stroke="#fff" stroke-linecap="null" stroke-linejoin="null" id="svg_11" y2="19.711281" x2="19.991545" y1="19.711281" x1="11.364624" fill-opacity="null" stroke-opacity="null" stroke-width="0.7" fill="none"/>
  <line stroke="#fff" transform="rotate(-90 0.3215951919555664,4.446199417114258)" stroke-linecap="null" stroke-linejoin="null" id="svg_12" y2="4.446199" x2="4.635056" y1="4.446199" x1="-3.991865" fill-opacity="null" stroke-opacity="null" stroke-width="0.7" fill="none"/>
 </g>
</svg>