<svg xmlns="http://www.w3.org/2000/svg" width="20" height="20" fill="none"><g fill="#ddd" fill-rule="evenodd" clip-path="url(#a)" clip-rule="evenodd"><path d="M16.5 8.75a7.75 7.75 0 1 1-15.5 0 7.75 7.75 0 0 1 15.5 0Zm-1.919 6.524a8.75 8.75 0 1 1 .692-.692c.029.018.056.04.08.064l4.243 4.243a.5.5 0 1 1-.707.707l-4.243-4.242a.509.509 0 0 1-.065-.08Z"/><path d="M5.75 4.25a1.5 1.5 0 0 0-1.5 1.5v1a.5.5 0 0 0 1 0v-1a.5.5 0 0 1 .5-.5h1a.5.5 0 0 0 0-1h-1Zm-1.5 7.5a1.5 1.5 0 0 0 1.5 1.5h1a.5.5 0 0 0 0-1h-1a.5.5 0 0 1-.5-.5v-1a.5.5 0 0 0-1 0v1Zm9 0a1.5 1.5 0 0 1-1.5 1.5h-1a.5.5 0 0 1 0-1h1a.5.5 0 0 0 .5-.5v-1a.5.5 0 0 1 1 0v1Zm-1.5-7.5a1.5 1.5 0 0 1 1.5 1.5v1a.5.5 0 0 1-1 0v-1a.5.5 0 0 0-.5-.5h-1a.5.5 0 0 1 0-1h1Z"/></g><defs><clipPath id="a"><path fill="#fff" d="M0 0h20v20H0z"/></clipPath></defs></svg>