<svg xmlns="http://www.w3.org/2000/svg" width="20" height="20" fill="none"><path stroke="#ddd" stroke-linejoin="round" d="M12.246 4.848 9.544 8.707 7.571 11.43a1 1 0 0 0-.182.716l.081.625a1 1 0 0 1-.043.446l-.349 1.048a1 1 0 0 0-.038.477l.019.115c.038.234.24.406.478.406a.969.969 0 0 0 .762-.37l.451-.575a1 1 0 0 1 .651-.374l.664-.09a1 1 0 0 0 .686-.42l1.815-2.613 2.702-3.859"/><circle cx="5.5" cy="17.5" r="1" fill="#fff" fill-opacity=".15" stroke="#ddd"/><path fill="#fff" fill-opacity=".15" stroke="#ddd" stroke-linejoin="round" d="M16.971 1.413c-1.27-.913-2.426.11-3.51 1.62l-1.123 1.56 3.094 2.225 1.122-1.561c1.085-1.508 1.687-2.93.417-3.844Z"/><path stroke="#ddd" stroke-linecap="round" d="m11.5 4 4.871 3.503M2 19h10"/></svg>