<svg xmlns="http://www.w3.org/2000/svg" width="20" height="20" fill="none"><path fill="#ddd" fill-rule="evenodd" d="M6.442 2.5a2 2 0 0 1 2-2h3.046a2 2 0 0 1 2 2v.314c0 .036-.003.07-.01.105h4.952a.5.5 0 1 1 0 1h-.764l-1.558 13.507a2.5 2.5 0 0 1-2.484 2.214H6.306a2.5 2.5 0 0 1-2.484-2.214L2.264 3.92H1.5a.5.5 0 0 1 0-1h4.953a.502.502 0 0 1-.011-.105V2.5Zm.989.419h5.068a.501.501 0 0 1-.01-.105V2.5a1 1 0 0 0-1-1H8.441a1 1 0 0 0-1 1v.314c0 .036-.004.07-.011.105Zm-4.16 1L4.815 17.31a1.5 1.5 0 0 0 1.49 1.329h7.318a1.5 1.5 0 0 0 1.49-1.329L16.66 3.92H3.27Zm5.38 3.337a.5.5 0 1 0-1 0v7.256a.5.5 0 0 0 1 0V7.256Zm3.128-.5a.5.5 0 0 1 .5.5v7.256a.5.5 0 0 1-1 0V7.256a.5.5 0 0 1 .5-.5Z" clip-rule="evenodd"/></svg>