<svg width="48" height="48" viewBox="0 0 48 48" fill="none" xmlns="http://www.w3.org/2000/svg">
<g clip-path="url(#clip0_810_585)">
<g filter="url(#filter0_ii_810_585)">
<path d="M38 0.25H10C4.61522 0.25 0.25 4.61522 0.25 10V38C0.25 43.3848 4.61522 47.75 10 47.75H38C43.3848 47.75 47.75 43.3848 47.75 38V10C47.75 4.61522 43.3848 0.25 38 0.25Z" fill="url(#paint0_radial_810_585)"/>
<path d="M38 0.25H10C4.61522 0.25 0.25 4.61522 0.25 10V38C0.25 43.3848 4.61522 47.75 10 47.75H38C43.3848 47.75 47.75 43.3848 47.75 38V10C47.75 4.61522 43.3848 0.25 38 0.25Z" fill="url(#paint1_linear_810_585)"/>
</g>
<path d="M10 0.75H38C43.1086 0.75 47.25 4.89137 47.25 10V38C47.25 43.1086 43.1086 47.25 38 47.25H10C4.89137 47.25 0.75 43.1086 0.75 38V10C0.75 4.89137 4.89137 0.75 10 0.75Z" stroke="black" stroke-opacity="0.1"/>
<path d="M38 0.25H10C4.61522 0.25 0.25 4.61522 0.25 10V38C0.25 43.3848 4.61522 47.75 10 47.75H38C43.3848 47.75 47.75 43.3848 47.75 38V10C47.75 4.61522 43.3848 0.25 38 0.25Z" fill="url(#paint2_radial_810_585)"/>
<path d="M38 0.25H10C4.61522 0.25 0.25 4.61522 0.25 10V38C0.25 43.3848 4.61522 47.75 10 47.75H38C43.3848 47.75 47.75 43.3848 47.75 38V10C47.75 4.61522 43.3848 0.25 38 0.25Z" fill="url(#paint3_radial_810_585)"/>
<g filter="url(#filter1_di_810_585)">
<path d="M21.2 35.75C21.272 35.4022 21.3809 35.0675 21.5225 34.75C21.7727 34.1888 22.125 33.6813 22.5564 33.25C23.4824 32.3243 24.7727 31.75 26.2 31.75C27.6272 31.75 28.9176 32.3243 29.8436 33.25C30.275 33.6813 30.6273 34.1888 30.8775 34.75C31.0191 35.0675 31.128 35.4022 31.2 35.75" stroke="url(#paint4_radial_810_585)" stroke-width="3.5" stroke-linecap="round" stroke-linejoin="round"/>
<rect x="25.2" y="15" width="9.5" height="3.5" rx="1.75" fill="url(#paint5_radial_810_585)"/>
<circle cx="26" cy="22" r="5.25" stroke="url(#paint6_radial_810_585)" stroke-width="3.5"/>
<rect x="13" y="15" width="3.5" height="14" rx="1.75" fill="url(#paint7_radial_810_585)"/>
<circle cx="14.75" cy="12.25" r="1.75" fill="url(#paint8_radial_810_585)"/>
</g>
</g>
<defs>
<filter id="filter0_ii_810_585" x="-0.25" y="-0.25" width="48" height="48" filterUnits="userSpaceOnUse" color-interpolation-filters="sRGB">
<feFlood flood-opacity="0" result="BackgroundImageFix"/>
<feBlend mode="normal" in="SourceGraphic" in2="BackgroundImageFix" result="shape"/>
<feColorMatrix in="SourceAlpha" type="matrix" values="0 0 0 0 0 0 0 0 0 0 0 0 0 0 0 0 0 0 127 0" result="hardAlpha"/>
<feOffset dx="-0.5" dy="-0.5"/>
<feGaussianBlur stdDeviation="1"/>
<feComposite in2="hardAlpha" operator="arithmetic" k2="-1" k3="1"/>
<feColorMatrix type="matrix" values="0 0 0 0 0 0 0 0 0 0.529412 0 0 0 0 0.768627 0 0 0 1 0"/>
<feBlend mode="normal" in2="shape" result="effect1_innerShadow_810_585"/>
<feColorMatrix in="SourceAlpha" type="matrix" values="0 0 0 0 0 0 0 0 0 0 0 0 0 0 0 0 0 0 127 0" result="hardAlpha"/>
<feOffset dx="-0.25"/>
<feGaussianBlur stdDeviation="0.25"/>
<feComposite in2="hardAlpha" operator="arithmetic" k2="-1" k3="1"/>
<feColorMatrix type="matrix" values="0 0 0 0 0.164706 0 0 0 0 0.411765 0 0 0 0 0.823529 0 0 0 1 0"/>
<feBlend mode="normal" in2="effect1_innerShadow_810_585" result="effect2_innerShadow_810_585"/>
</filter>
<filter id="filter1_di_810_585" x="-7" y="-9.5" width="61.7" height="67.0004" filterUnits="userSpaceOnUse" color-interpolation-filters="sRGB">
<feFlood flood-opacity="0" result="BackgroundImageFix"/>
<feColorMatrix in="SourceAlpha" type="matrix" values="0 0 0 0 0 0 0 0 0 0 0 0 0 0 0 0 0 0 127 0" result="hardAlpha"/>
<feOffset/>
<feGaussianBlur stdDeviation="10"/>
<feComposite in2="hardAlpha" operator="out"/>
<feColorMatrix type="matrix" values="0 0 0 0 0 0 0 0 0 0 0 0 0 0 0 0 0 0 0.3 0"/>
<feBlend mode="normal" in2="BackgroundImageFix" result="effect1_dropShadow_810_585"/>
<feBlend mode="normal" in="SourceGraphic" in2="effect1_dropShadow_810_585" result="shape"/>
<feColorMatrix in="SourceAlpha" type="matrix" values="0 0 0 0 0 0 0 0 0 0 0 0 0 0 0 0 0 0 127 0" result="hardAlpha"/>
<feOffset dx="1" dy="-1"/>
<feGaussianBlur stdDeviation="1.5"/>
<feComposite in2="hardAlpha" operator="arithmetic" k2="-1" k3="1"/>
<feColorMatrix type="matrix" values="0 0 0 0 0.879238 0 0 0 0 0.920128 0 0 0 0 0.938613 0 0 0 1 0"/>
<feBlend mode="normal" in2="shape" result="effect2_innerShadow_810_585"/>
</filter>
<radialGradient id="paint0_radial_810_585" cx="0" cy="0" r="1" gradientUnits="userSpaceOnUse" gradientTransform="translate(17.5227 14.8258) rotate(58.5309) scale(47.0457 56.7935)">
<stop stop-color="#0096D8"/>
<stop offset="1" stop-color="#0067C6"/>
</radialGradient>
<linearGradient id="paint1_linear_810_585" x1="24" y1="51.5226" x2="24" y2="37.9756" gradientUnits="userSpaceOnUse">
<stop stop-color="#0067C6"/>
<stop offset="1" stop-color="#508BFF" stop-opacity="0"/>
</linearGradient>
<radialGradient id="paint2_radial_810_585" cx="0" cy="0" r="1" gradientUnits="userSpaceOnUse" gradientTransform="translate(6.5 4.5) rotate(47.3859) scale(33.9706 35.1519)">
<stop stop-color="#008BCB"/>
<stop offset="1" stop-color="#50CAFF" stop-opacity="0"/>
</radialGradient>
<radialGradient id="paint3_radial_810_585" cx="0" cy="0" r="1" gradientUnits="userSpaceOnUse" gradientTransform="translate(49.9091 51.0081) rotate(-134.62) scale(63.936 56.7042)">
<stop offset="0.875947" stop-color="#0089C6" stop-opacity="0"/>
<stop offset="1" stop-color="#0096DA"/>
</radialGradient>
<radialGradient id="paint4_radial_810_585" cx="0" cy="0" r="1" gradientUnits="userSpaceOnUse" gradientTransform="translate(28.5191 31.25) rotate(147.621) scale(9.33666 10.1124)">
<stop offset="0.254198" stop-color="white"/>
<stop offset="0.726314" stop-color="#A7D5F7"/>
</radialGradient>
<radialGradient id="paint5_radial_810_585" cx="0" cy="0" r="1" gradientUnits="userSpaceOnUse" gradientTransform="translate(31.4768 15.8122) rotate(152.724) scale(5.72595 4.93114)">
<stop offset="0.212753" stop-color="white"/>
<stop offset="0.742622" stop-color="#BDE3FF"/>
</radialGradient>
<radialGradient id="paint6_radial_810_585" cx="0" cy="0" r="1" gradientUnits="userSpaceOnUse" gradientTransform="translate(28.8 17.1) rotate(119.539) scale(12.0687)">
<stop offset="0.14255" stop-color="white"/>
<stop offset="0.557835" stop-color="#A7D5F7"/>
</radialGradient>
<radialGradient id="paint7_radial_810_585" cx="0" cy="0" r="1" gradientUnits="userSpaceOnUse" gradientTransform="translate(15.3125 18.2488) rotate(100.128) scale(10.6624 3.90251)">
<stop offset="0.212753" stop-color="white"/>
<stop offset="0.742622" stop-color="#BDE3FF"/>
</radialGradient>
<radialGradient id="paint8_radial_810_585" cx="0" cy="0" r="1" gradientUnits="userSpaceOnUse" gradientTransform="translate(15.3125 11.3122) rotate(125.547) scale(3.22511 3.22548)">
<stop offset="0.212753" stop-color="white"/>
<stop offset="0.742622" stop-color="#BDE3FF"/>
</radialGradient>
<clipPath id="clip0_810_585">
<rect width="48" height="48" fill="white"/>
</clipPath>
</defs>
</svg>
