<svg xmlns="http://www.w3.org/2000/svg" width="20" height="20" fill="none"><path stroke="#ddd" stroke-linecap="round" stroke-linejoin="round" d="m15.572 16.971 3.19-5.742A1.5 1.5 0 0 0 17.451 9h-6.467a2 2 0 0 0-.915.221l-1.689.869a2 2 0 0 1-.807.219l-2.297.123a2 2 0 0 0-1.75 1.254l-1.429 3.571A2 2 0 0 0 3.954 18h9.87a2 2 0 0 0 1.748-1.029Z"/><path stroke="#ddd" stroke-linecap="round" stroke-linejoin="round" d="M14 18H3a2 2 0 0 1-2-2V5a2 2 0 0 1 2-2h4.333a2 2 0 0 1 1.2.4l1.434 1.075a2 2 0 0 0 1.2.4h4.612a1.5 1.5 0 0 1 1.486 1.705L17 8.5"/><path fill="#fff" fill-opacity=".15" d="M3 7.423a1.5 1.5 0 0 1 1.513-1.5l9.996.086a1 1 0 0 1 .991 1V9h-4.146a1.5 1.5 0 0 0-.67.158l-1.589.794c-.063.032-.129.06-.196.082l-1.256.418a1.498 1.498 0 0 1-.293.066l-2.034.247a1.5 1.5 0 0 0-.59.202L3 12V7.423Z"/></svg>