<svg width="20" height="20" viewBox="0 0 20 20" fill="none" xmlns="http://www.w3.org/2000/svg">
<path d="M15.5715 16.9713L18.762 11.2285C19.3174 10.2287 18.5945 9 17.4507 9H10.9841C10.666 9 10.3524 9.07591 10.0695 9.22142L8.38048 10.09C8.12966 10.219 7.8544 10.2935 7.57277 10.3086L5.27555 10.4317C4.49774 10.4733 3.81488 10.9628 3.52559 11.686L2.09711 15.2572C1.57162 16.5709 2.53914 18 3.95407 18H13.8232C14.5495 18 15.2188 17.6062 15.5715 16.9713Z" stroke="#fff" stroke-linecap="round" stroke-linejoin="round"/>
<path d="M14 18H3C1.89543 18 1 17.1046 1 16V11.4375V8.15625V5C1 3.89543 1.89543 3 3 3H7.33333C7.76607 3 8.18714 3.14036 8.53333 3.4L9.96667 4.475C10.3129 4.73464 10.7339 4.875 11.1667 4.875H15.7789C16.6888 4.875 17.3892 5.67858 17.2648 6.57996L17 8.5" stroke="#fff" stroke-linecap="round" stroke-linejoin="round"/>
<path d="M3 7.42256C3 6.58906 3.67952 5.9154 4.51299 5.92262L14.5087 6.00919C15.0575 6.01394 15.5 6.46025 15.5 7.00915V9H11.3541C11.1212 9 10.8916 9.05422 10.6833 9.15836L9.09535 9.95233C9.03186 9.98407 8.9662 10.0113 8.89887 10.0337L7.64344 10.4522C7.54806 10.484 7.44971 10.5061 7.3499 10.5182L5.31604 10.7652C5.10767 10.7905 4.90692 10.8592 4.72679 10.967L3 12V7.42256Z" fill="#fff" fill-opacity="0.15"/>
</svg>
