<svg xmlns="http://www.w3.org/2000/svg" width="20" height="20" fill="none"><path fill="#ddd" fill-rule="evenodd" d="M6 1.5A1.5 1.5 0 0 0 4.5 3v.5H3A2.5 2.5 0 0 0 .5 6v6A2.5 2.5 0 0 0 3 14.5h1V16a2.5 2.5 0 0 0 2.5 2.5h7A2.5 2.5 0 0 0 16 16v-1.5h1a2.5 2.5 0 0 0 2.5-2.5V6A2.5 2.5 0 0 0 17 3.5h-1.5V3A1.5 1.5 0 0 0 14 1.5H6Zm8.5 2V3a.5.5 0 0 0-.5-.5H6a.5.5 0 0 0-.5.5v.5h9Zm2.5 10h-1V11a2.5 2.5 0 0 0-2.5-2.5h-7A2.5 2.5 0 0 0 4 11v2.5H3A1.5 1.5 0 0 1 1.5 12V6A1.5 1.5 0 0 1 3 4.5h14A1.5 1.5 0 0 1 18.5 6v6a1.5 1.5 0 0 1-1.5 1.5Zm-10.5-4A1.5 1.5 0 0 0 5 11v5a1.5 1.5 0 0 0 1.5 1.5h7A1.5 1.5 0 0 0 15 16v-5a1.5 1.5 0 0 0-1.5-1.5h-7Zm0 2.5a.5.5 0 0 1 .5-.5h6a.5.5 0 0 1 0 1H7a.5.5 0 0 1-.5-.5Zm.5 2.5a.5.5 0 0 0 0 1h6a.5.5 0 0 0 0-1H7Z" clip-rule="evenodd"/></svg>