<svg xmlns="http://www.w3.org/2000/svg" width="20" height="20" fill="none"><g fill="#ddd"><path fill-rule="evenodd" d="M2.434 4.448c.312.202.685.32 1.085.32h1.924a.5.5 0 0 1 0 1H1.02a.5.5 0 0 1-.5-.5V.835a.5.5 0 0 1 1 0v1.931c0 .338.084.656.232.936a9.587 9.587 0 0 1 3.318-2.569 9.857 9.857 0 0 1 4.899-.9C11.66.355 13.3.904 14.735 1.83a10.183 10.183 0 0 1 3.425 3.684 9.911 9.911 0 0 1 1.214 4.84 9.605 9.605 0 0 1-1.315 4.763.5.5 0 1 1-.863-.506 8.605 8.605 0 0 0 1.178-4.268 8.911 8.911 0 0 0-1.092-4.35 9.183 9.183 0 0 0-3.09-3.323 9.156 9.156 0 0 0-4.296-1.44 8.858 8.858 0 0 0-4.402.81 8.584 8.584 0 0 0-3.06 2.408Z" clip-rule="evenodd"/><circle cx="9.5" cy="10" r="1.5" fill="#fff" fill-opacity=".1" stroke="#ddd"/><path fill-rule="evenodd" d="M9.24 19.367a.5.5 0 0 1 .497-.503 8.94 8.94 0 0 0 1.126-.078.5.5 0 1 1 .132.992 9.943 9.943 0 0 1-1.252.086.5.5 0 0 1-.503-.497Zm3.525-.507a.5.5 0 0 1 .274-.652 8.67 8.67 0 0 0 1.945-1.109.5.5 0 1 1 .604.797 9.615 9.615 0 0 1-2.17 1.237.5.5 0 0 1-.652-.273Zm3.892-2.624a.5.5 0 0 1-.087-.701c.228-.293.437-.602.626-.924a.5.5 0 1 1 .863.506 9.52 9.52 0 0 1-.7 1.032.5.5 0 0 1-.702.087Z" clip-rule="evenodd"/></g></svg>