<svg xmlns="http://www.w3.org/2000/svg" width="20" height="20" fill="none"><path fill="#ddd" fill-rule="evenodd" d="M3 1A2.5 2.5 0 0 0 .5 3.5v10A2.5 2.5 0 0 0 3 16h4.793l-2.147 2.146a.5.5 0 0 0 .708.708L9.207 16h1.586l2.853 2.854a.5.5 0 0 0 .708-.708L12.207 16H17a2.5 2.5 0 0 0 2.5-2.5v-10A2.5 2.5 0 0 0 17 1H3Zm8 14h6a1.5 1.5 0 0 0 1.5-1.5v-10A1.5 1.5 0 0 0 17 2H3a1.5 1.5 0 0 0-1.5 1.5v10A1.5 1.5 0 0 0 3 15h8Z" clip-rule="evenodd"/><rect width="14" height="10" x="3" y="3.5" fill="#fff" fill-opacity=".15" rx="1.5"/><path stroke="#ddd" stroke-linecap="round" stroke-linejoin="round" stroke-opacity=".75" stroke-width=".5" d="m5 11.167 2.347-2.715a1 1 0 0 1 1.564.065l1.445 1.983m.729 1-.729-1m0 0 .81-1.06a1 1 0 0 1 1.452-.147L14 10.5"/><ellipse cx="13.333" cy="6.272" fill="#fff" fill-opacity=".2" rx=".778" ry=".769"/><path stroke="#ddd" stroke-opacity=".75" stroke-width=".35" d="M13.936 6.272a.599.599 0 0 1-.603.594.599.599 0 0 1-.602-.594c0-.327.268-.594.602-.594.335 0 .603.267.603.594Z"/></svg>