<svg xmlns="http://www.w3.org/2000/svg" width="20" height="20" fill="none"><g><rect width="18" height="18" x="1" y="1" stroke="#ddd" stroke-linejoin="round" rx="2"/><rect width="7" height="7" x="3.5" y="9.5" stroke="#ddd" stroke-linecap="round" stroke-linejoin="round" rx="1.5"/><path fill="#ddd" fill-rule="evenodd" d="M9.104 4.605a.5.5 0 0 1 0 .707L7.277 7.14a.499.499 0 0 1-.707 0L4.74 5.31a.5.5 0 0 1 .707-.707l.77.77c.059.059.124.11.193.15V2.5a.5.5 0 0 1 1 0v3.038a1 1 0 0 0 .22-.167l.766-.766a.5.5 0 0 1 .708 0ZM15.395 15.354a.5.5 0 0 1-.707 0l-1.827-1.827a.499.499 0 0 1 0-.707l1.83-1.83a.5.5 0 1 1 .707.707l-.77.77a.998.998 0 0 0-.15.193H17.5a.5.5 0 1 1 0 1h-3.038c.044.08.1.153.167.22l.766.766a.5.5 0 0 1 0 .708Z" clip-rule="evenodd"/></g></svg>