<svg width="20" height="20" viewBox="0 0 20 20" fill="none" xmlns="http://www.w3.org/2000/svg">
<g clip-path="url(#clip0_806_694)">
<path fill-rule="evenodd" clip-rule="evenodd" d="M16.5 8.75C16.5 13.0302 13.0302 16.5 8.75 16.5C4.46979 16.5 1 13.0302 1 8.75C1 4.46979 4.46979 1 8.75 1C13.0302 1 16.5 4.46979 16.5 8.75ZM14.5814 15.2737C13.0336 16.6582 10.9901 17.5 8.75 17.5C3.91751 17.5 0 13.5825 0 8.75C0 3.91751 3.91751 0 8.75 0C13.5825 0 17.5 3.91751 17.5 8.75C17.5 10.9901 16.6582 13.0336 15.2737 14.5814C15.3019 14.5999 15.3287 14.6216 15.3536 14.6464L19.5962 18.8891C19.7915 19.0843 19.7915 19.4009 19.5962 19.5962C19.4009 19.7915 19.0843 19.7915 18.8891 19.5962L14.6464 15.3536C14.6216 15.3287 14.5999 15.3019 14.5814 15.2737Z" fill="#fff"/>
<path fill-rule="evenodd" clip-rule="evenodd" d="M9.5 6C9.5 5.72386 9.27614 5.5 9 5.5C8.72386 5.5 8.5 5.72386 8.5 6V8.5H6C5.72386 8.5 5.5 8.72386 5.5 9C5.5 9.27614 5.72386 9.5 6 9.5H8.5V12C8.5 12.2761 8.72386 12.5 9 12.5C9.27614 12.5 9.5 12.2761 9.5 12V9.5H12C12.2761 9.5 12.5 9.27614 12.5 9C12.5 8.72386 12.2761 8.5 12 8.5H9.5V6Z" fill="#fff"/>
</g>
<defs>
<clipPath id="clip0_806_694">
<rect width="20" height="20" fill="white"/>
</clipPath>
</defs>
</svg>
