<svg width="15" height="15" viewBox="0 0 15 15" fill="none" xmlns="http://www.w3.org/2000/svg" stroke="#000">
<path d="M1.92971 14.283L1.92972 14.283L1.95149 14.2775L1.95151 14.2775L4.58384 13.6194C4.59896 13.6156 4.61396 13.6119 4.62885 13.6082C4.85159 13.5528 5.04877 13.5037 5.2278 13.4023C5.40683 13.301 5.55035 13.1571 5.71248 12.9947C5.72332 12.9838 5.73425 12.9729 5.74527 12.9618L12.9393 5.76777L12.9393 5.76776L12.9626 5.74448C13.2761 5.43108 13.5461 5.16105 13.7333 4.91573C13.9339 4.65281 14.0858 4.36038 14.0858 4C14.0858 3.63961 13.9339 3.34719 13.7333 3.08427C13.5461 2.83894 13.276 2.5689 12.9626 2.2555L12.9393 2.23223L12.5858 2.58579L12.9393 2.23223L12.7678 2.06066L12.7445 2.03738C12.4311 1.72395 12.1611 1.45388 11.9157 1.2667C11.6528 1.0661 11.3604 0.914214 11 0.914214C10.6396 0.914214 10.3472 1.0661 10.0843 1.2667C9.83894 1.45388 9.5689 1.72395 9.2555 2.03739L9.23223 2.06066L2.03816 9.25473C2.02714 9.26576 2.01619 9.27668 2.00533 9.28752C1.84286 9.44965 1.69903 9.59317 1.59766 9.7722C1.4963 9.95123 1.44723 10.1484 1.39179 10.3711C1.38809 10.386 1.38435 10.401 1.38057 10.4162L0.717042 13.0703C0.714826 13.0791 0.712596 13.088 0.710358 13.097C0.671116 13.2537 0.629207 13.421 0.615459 13.5615C0.600323 13.7163 0.603851 13.9773 0.813262 14.1867C1.02267 14.3961 1.28373 14.3997 1.43846 14.3845C1.57899 14.3708 1.74633 14.3289 1.90301 14.2896C1.91195 14.2874 1.92085 14.2852 1.92971 14.283Z" fill="none" />
</svg>
