<svg width="18" height="17" viewBox="0 0 18 17" xmlns="http://www.w3.org/2000/svg" stroke="#000" fill="#000">
<path d="M9.43489 15.9775L9.4747 15.4791L9.43489 15.9775ZM7.7155 15.4863L8.20354 15.3776L7.7155 15.4863ZM9.94043 2.21305L10.2222 1.80003L9.94043 2.21305ZM16.5 9C16.5 5.41015 13.5899 2.5 10 2.5V1.5C14.1421 1.5 17.5 4.85786 17.5 9H16.5ZM10 15.5C13.5899 15.5 16.5 12.5899 16.5 9H17.5C17.5 13.1421 14.1421 16.5 10 16.5V15.5ZM9.4747 15.4791C9.64788 15.4929 9.82306 15.5 10 15.5V16.5C9.79646 16.5 9.59471 16.4919 9.39507 16.4759L9.4747 15.4791ZM9.21352 13.6509C11.1776 12.5315 12.5 10.4196 12.5 7.99946H13.5C13.5 10.7933 11.9721 13.2297 9.70868 14.5197L9.21352 13.6509ZM12.5 7.99946C12.5 5.76698 11.375 3.79713 9.65863 2.62607L10.2222 1.80003C12.1999 3.14942 13.5 5.42255 13.5 7.99946H12.5ZM9.39507 16.4759C8.86706 16.4338 8.41026 16.3987 8.08062 16.3209C7.76527 16.2464 7.33517 16.0786 7.22746 15.595L8.20354 15.3776C8.17608 15.2543 8.0593 15.2884 8.31038 15.3476C8.54719 15.4036 8.90996 15.434 9.4747 15.4791L9.39507 16.4759ZM9.70868 14.5197C9.08716 14.874 8.66368 15.1164 8.39979 15.3123C8.26768 15.4104 8.21311 15.4702 8.19494 15.4966C8.18583 15.5098 8.22158 15.4586 8.20354 15.3776L7.22746 15.595C7.16929 15.3338 7.25102 15.1041 7.3715 14.9292C7.4829 14.7675 7.64151 14.6298 7.80369 14.5094C8.12835 14.2683 8.6178 13.9904 9.21352 13.6509L9.70868 14.5197ZM10 2.5C10.1966 2.5 10.3351 2.35807 10.3744 2.21479C10.4123 2.07668 10.3702 1.90097 10.2222 1.80003L9.65863 2.62607C9.41662 2.46096 9.34733 2.17873 9.41007 1.95013C9.47423 1.71637 9.68952 1.5 10 1.5V2.5Z" stroke="none"/>
<path d="M3.4 7.2L3.4 7.2C3.50137 7.50412 3.55206 7.65618 3.60276 7.7225C3.80288 7.98431 4.19712 7.98431 4.39724 7.7225C4.44794 7.65618 4.49863 7.50412 4.6 7.2L4.6 7.2C4.68177 6.95468 4.72266 6.83201 4.77555 6.72099C4.97291 6.30672 5.30672 5.97291 5.72099 5.77555C5.83201 5.72266 5.95468 5.68177 6.2 5.6L6.2 5.6C6.50412 5.49863 6.65618 5.44794 6.7225 5.39724C6.98431 5.19712 6.98431 4.80288 6.7225 4.60276C6.65618 4.55206 6.50412 4.50137 6.2 4.4L6.2 4.4C5.95468 4.31822 5.83201 4.27734 5.72099 4.22445C5.30672 4.02709 4.97291 3.69329 4.77555 3.27901C4.72266 3.16799 4.68177 3.04532 4.6 2.8C4.49863 2.49588 4.44794 2.34382 4.39724 2.2775C4.19712 2.01569 3.80288 2.01569 3.60276 2.2775C3.55206 2.34382 3.50137 2.49588 3.4 2.8C3.31823 3.04532 3.27734 3.16799 3.22445 3.27901C3.02709 3.69329 2.69329 4.02709 2.27901 4.22445C2.16799 4.27734 2.04532 4.31823 1.8 4.4C1.49588 4.50137 1.34382 4.55206 1.2775 4.60276C1.01569 4.80288 1.01569 5.19712 1.2775 5.39724C1.34382 5.44794 1.49588 5.49863 1.8 5.6C2.04532 5.68177 2.16799 5.72266 2.27901 5.77555C2.69329 5.97291 3.02709 6.30672 3.22445 6.72099C3.27734 6.83201 3.31822 6.95468 3.4 7.2Z" fill="none"/>
</svg>
