<svg width="18" height="18" viewBox="0 0 18 18" fill="none" xmlns="http://www.w3.org/2000/svg" stroke="#000">
<path d="M6 1H4C2.58579 1 1.87868 1 1.43934 1.43934C1 1.87868 1 2.58579 1 4V6" stroke-linecap="round"/>
<path d="M6 17H4C2.58579 17 1.87868 17 1.43934 16.5607C1 16.1213 1 15.4142 1 14V12" stroke-linecap="round"/>
<path d="M12 1H14C15.4142 1 16.1213 1 16.5607 1.43934C17 1.87868 17 2.58579 17 4V6" stroke-linecap="round"/>
<path d="M12 17H14C15.4142 17 16.1213 17 16.5607 16.5607C17 16.1213 17 15.4142 17 14V12" stroke-linecap="round"/>
</svg>
