<svg width="19" height="19" viewBox="0 0 19 19" xmlns="http://www.w3.org/2000/svg" fill="#000">
<path fill-rule="evenodd" clip-rule="evenodd" d="M2 0.500244C0.89543 0.500244 0 1.39567 0 2.50024V3.50024H1V2.50024C1 1.94796 1.44772 1.50024 2 1.50024H3V0.500244H2ZM2 15.5002C0.89543 15.5002 0 14.6048 0 13.5002V12.5002H1V13.5002C1 14.0525 1.44772 14.5002 2 14.5002H3V15.5002H2ZM16 2.50024V3.50024H15V2.50024C15 1.94796 14.5523 1.50024 14 1.50024H13V0.500244H14C15.1046 0.500244 16 1.39567 16 2.50024ZM16 5.00024H15V7.00024H16V5.00024ZM0 8.50024H1V10.5002H0V8.50024ZM1 5.00024H0V7.00024H1V5.00024ZM9 0.500244H11V1.50024H9V0.500244ZM7 14.5002H5V15.5002H7V14.5002ZM5 0.500244H7V1.50024H5V0.500244ZM11.5579 17.9236C11.266 18.8392 9.93475 18.7214 9.80822 17.7688L8.58207 8.53677C8.55763 8.35281 8.6371 8.17045 8.78847 8.06309C8.93985 7.95574 9.13823 7.94106 9.30376 8.02495L17.5524 12.2057C18.395 12.6328 18.0945 13.9039 17.1498 13.9084L13.1947 13.9274C12.978 13.9285 12.7866 14.0691 12.7207 14.2756L11.5579 17.9236ZM9.69833 9.34605L10.7407 17.1945L11.768 13.9719C11.9655 13.3523 12.5396 12.9306 13.1899 12.9274L16.7309 12.9104L9.69833 9.34605Z" />
</svg>
